<?xml version="1.0" encoding="UTF-8"?>
<!DOCTYPE svg PUBLIC "-//W3C//DTD SVG 1.1//EN" "http://www.w3.org/Graphics/SVG/1.1/DTD/svg11.dtd">
<svg xmlns="http://www.w3.org/2000/svg" version="1.1" width="402px" height="352px" style="shape-rendering:geometricPrecision; text-rendering:geometricPrecision; image-rendering:optimizeQuality; fill-rule:evenodd; clip-rule:evenodd" xmlns:xlink="http://www.w3.org/1999/xlink">
<g><path style="opacity:0.792" fill="#f7e3be" d="M 296.5,19.5 C 294.5,19.5 292.5,19.5 290.5,19.5C 292.5,16.8333 294.5,16.8333 296.5,19.5 Z"/></g>
<g><path style="opacity:0.671" fill="#efdbb9" d="M 203.5,18.5 C 205.641,19.7551 206.307,21.4218 205.5,23.5C 202.807,22.4682 202.14,20.8015 203.5,18.5 Z"/></g>
<g><path style="opacity:0.047" fill="#f9edd3" d="M 211.5,16.5 C 212.5,16.5 213.5,16.5 214.5,16.5C 214.5,18.1667 214.5,19.8333 214.5,21.5C 213.5,21.5 212.5,21.5 211.5,21.5C 211.5,19.8333 211.5,18.1667 211.5,16.5 Z"/></g>
<g><path style="opacity:0.298" fill="#fbddc0" d="M 139.5,20.5 C 142.241,20.7073 144.574,21.7073 146.5,23.5C 144.784,23.3713 143.117,23.038 141.5,22.5C 140.833,21.8333 140.167,21.1667 139.5,20.5 Z"/></g>
<g><path style="opacity:1" fill="#f3a05e" d="M 139.5,20.5 C 140.167,21.1667 140.833,21.8333 141.5,22.5C 140.167,22.5 138.833,22.5 137.5,22.5C 137.515,30.1817 141.182,32.8484 148.5,30.5C 148.736,31.2472 149.07,32.0805 149.5,33C 152.371,33.1177 155.038,33.7844 157.5,35C 156.906,35.4643 156.239,35.631 155.5,35.5C 150.822,34.79 146.155,33.79 141.5,32.5C 141.167,32.5 140.833,32.5 140.5,32.5C 139.432,31.5655 138.099,31.2322 136.5,31.5C 136.635,34.4175 135.968,37.0842 134.5,39.5C 132.886,41.0746 130.886,41.7413 128.5,41.5C 127.58,34.0635 128.913,27.2302 132.5,21C 134.81,20.5034 137.143,20.3367 139.5,20.5 Z"/></g>
<g><path style="opacity:0.451" fill="#ede1bd" d="M 221.5,18.5 C 223.965,20.0686 223.798,21.7353 221,23.5C 220.5,23.1667 220,22.8333 219.5,22.5C 220.18,21.1401 220.847,19.8068 221.5,18.5 Z"/></g>
<g><path style="opacity:0.953" fill="#fcd583" d="M 219.5,25.5 C 214.172,23.928 209.172,24.5947 204.5,27.5C 208.967,21.8672 213.967,21.2005 219.5,25.5 Z"/></g>
<g><path style="opacity:1" fill="#f4a059" d="M 141.5,22.5 C 143.117,23.038 144.784,23.3713 146.5,23.5C 146.833,23.5 147.167,23.5 147.5,23.5C 147.5,24.5 147.5,25.5 147.5,26.5C 149.604,26.2011 151.604,26.5344 153.5,27.5C 157.744,30.0236 162.077,32.357 166.5,34.5C 166.5,35.8333 166.5,37.1667 166.5,38.5C 170.648,38.574 173.981,40.2406 176.5,43.5C 176.5,44.1667 176.5,44.8333 176.5,45.5C 175.85,45.1961 175.183,44.8627 174.5,44.5C 173.85,46.1836 172.85,47.5169 171.5,48.5C 172.087,47.2334 172.087,46.2334 171.5,45.5C 169.177,46.6716 166.844,46.6716 164.5,45.5C 164.649,44.448 164.483,43.448 164,42.5C 162.075,40.7868 159.908,39.4535 157.5,38.5C 156.91,37.2011 155.91,36.3678 154.5,36C 154.728,35.6012 155.062,35.4346 155.5,35.5C 156.239,35.631 156.906,35.4643 157.5,35C 155.038,33.7844 152.371,33.1177 149.5,33C 149.07,32.0805 148.736,31.2472 148.5,30.5C 141.182,32.8484 137.515,30.1817 137.5,22.5C 138.833,22.5 140.167,22.5 141.5,22.5 Z"/></g>
<g><path style="opacity:1" fill="#f2ca87" d="M 287.5,20.5 C 282.476,24.1718 276.81,26.5051 270.5,27.5C 275.86,24.5973 281.527,22.264 287.5,20.5 Z"/></g>
<g><path style="opacity:0.98" fill="#e9d9b7" d="M 195.5,25.5 C 199.019,25.1868 200.353,26.5201 199.5,29.5C 197.192,29.0345 195.858,27.7012 195.5,25.5 Z"/></g>
<g><path style="opacity:0.863" fill="#e5e2b9" d="M 227.5,25.5 C 228.675,25.281 229.675,25.6143 230.5,26.5C 229.215,28.6589 227.548,29.3255 225.5,28.5C 226.193,27.4822 226.859,26.4822 227.5,25.5 Z"/></g>
<g><path style="opacity:0.804" fill="#f9e1a5" d="M 298.5,22.5 C 299.801,26.9426 300.468,31.6093 300.5,36.5C 300.167,36.5 299.833,36.5 299.5,36.5C 298.873,31.8592 298.54,27.1925 298.5,22.5 Z"/></g>
<g><path style="opacity:1" fill="#f3ad3b" d="M 290.5,19.5 C 292.5,19.5 294.5,19.5 296.5,19.5C 297.906,19.9731 298.573,20.9731 298.5,22.5C 298.54,27.1925 298.873,31.8592 299.5,36.5C 299.5,39.1667 299.5,41.8333 299.5,44.5C 298.063,41.1398 296.729,37.6398 295.5,34C 296.895,31.3211 297.561,28.4877 297.5,25.5C 297.762,24.0222 297.429,22.6888 296.5,21.5C 293.202,22.6415 290.869,24.8082 289.5,28C 287.285,29.0438 284.952,29.7105 282.5,30C 285.036,30.1862 287.369,30.6862 289.5,31.5C 288.209,31.2627 287.209,31.596 286.5,32.5C 284.473,32.3379 282.473,32.5045 280.5,33C 276.88,34.6124 273.38,36.4458 270,38.5C 269.586,38.0426 269.086,37.7093 268.5,37.5C 267.571,38.6888 267.238,40.0222 267.5,41.5C 266.391,41.5569 265.391,41.8902 264.5,42.5C 264.539,40.6412 263.706,39.3079 262,38.5C 262.465,34.1925 264.965,31.5258 269.5,30.5C 270.386,29.675 270.719,28.675 270.5,27.5C 276.81,26.5051 282.476,24.1718 287.5,20.5C 288.209,19.596 289.209,19.2627 290.5,19.5 Z"/></g>
<g><path style="opacity:1" fill="#fcb608" d="M 219.5,25.5 C 221.686,29.8413 222.686,34.5079 222.5,39.5C 221.167,39.5 219.833,39.5 218.5,39.5C 218.5,41.5 218.5,43.5 218.5,45.5C 215.5,45.5 212.5,45.5 209.5,45.5C 209.649,42.3926 209.149,39.3926 208,36.5C 206.644,37.3802 205.144,37.7135 203.5,37.5C 203.5,34.5 203.5,31.5 203.5,28.5C 203.5,27.8333 203.833,27.5 204.5,27.5C 209.172,24.5947 214.172,23.928 219.5,25.5 Z"/></g>
<g><path style="opacity:1" fill="#f4cc8c" d="M 286.5,32.5 C 280.11,35.1929 273.777,38.1929 267.5,41.5C 267.238,40.0222 267.571,38.6888 268.5,37.5C 269.086,37.7093 269.586,38.0426 270,38.5C 273.38,36.4458 276.88,34.6124 280.5,33C 282.473,32.5045 284.473,32.3379 286.5,32.5 Z"/></g>
<g><path style="opacity:1" fill="#f0b989" d="M 141.5,32.5 C 146.155,33.79 150.822,34.79 155.5,35.5C 155.062,35.4346 154.728,35.6012 154.5,36C 155.91,36.3678 156.91,37.2011 157.5,38.5C 159.908,39.4535 162.075,40.7868 164,42.5C 164.483,43.448 164.649,44.448 164.5,45.5C 161.379,43.5518 158.379,41.3852 155.5,39C 150.569,37.094 145.902,34.9273 141.5,32.5 Z"/></g>
<g><path style="opacity:0.053" fill="#f9ebd2" d="M 193.5,34.5 C 195.167,34.5 196.833,34.5 198.5,34.5C 198.5,35.5 198.5,36.5 198.5,37.5C 196.833,37.5 195.167,37.5 193.5,37.5C 193.5,36.5 193.5,35.5 193.5,34.5 Z"/></g>
<g><path style="opacity:0.055" fill="#f9eecc" d="M 227.5,34.5 C 229.167,34.5 230.833,34.5 232.5,34.5C 232.5,35.5 232.5,36.5 232.5,37.5C 230.833,37.5 229.167,37.5 227.5,37.5C 227.5,36.5 227.5,35.5 227.5,34.5 Z"/></g>
<g><path style="opacity:1" fill="#f1b986" d="M 147.5,23.5 C 159.505,26.9847 169.171,33.6514 176.5,43.5C 173.981,40.2406 170.648,38.574 166.5,38.5C 166.5,37.1667 166.5,35.8333 166.5,34.5C 162.077,32.357 157.744,30.0236 153.5,27.5C 151.604,26.5344 149.604,26.2011 147.5,26.5C 147.5,25.5 147.5,24.5 147.5,23.5 Z"/></g>
<g><path style="opacity:0.929" fill="#f3d29b" d="M 259.5,34.5 C 256.833,37.8333 253.833,40.8333 250.5,43.5C 252.5,39.5 255.5,36.5 259.5,34.5 Z"/></g>
<g><path style="opacity:1" fill="#eeb78a" d="M 140.5,32.5 C 138.389,33.7695 137.389,35.7695 137.5,38.5C 137.833,39.5 138.167,40.5 138.5,41.5C 139.739,41.9424 140.739,42.6091 141.5,43.5C 139.139,43.3259 136.806,42.9926 134.5,42.5C 134.5,41.5 134.5,40.5 134.5,39.5C 135.968,37.0842 136.635,34.4175 136.5,31.5C 138.099,31.2322 139.432,31.5655 140.5,32.5 Z"/></g>
<g><path style="opacity:1" fill="#eebc67" d="M 286.5,32.5 C 287.209,31.596 288.209,31.2627 289.5,31.5C 290.583,34.1944 291.583,37.0277 292.5,40C 292.443,42.2089 291.443,43.7089 289.5,44.5C 284.987,44.588 280.987,46.088 277.5,49C 276.207,49.49 274.873,49.6567 273.5,49.5C 277.998,46.095 282.998,43.4283 288.5,41.5C 289.641,39.5787 289.808,37.5787 289,35.5C 288.764,33.8807 287.931,32.8807 286.5,32.5 Z"/></g>
<g><path style="opacity:0.812" fill="#f4d9ba" d="M 225.5,42.5 C 227.912,42.244 229.579,43.244 230.5,45.5C 227.688,46.7195 226.021,45.7195 225.5,42.5 Z"/></g>
<g><path style="opacity:0.992" fill="#f2d6b4" d="M 198.5,42.5 C 199.376,42.3691 200.043,42.7025 200.5,43.5C 199.485,46.1677 197.818,46.8344 195.5,45.5C 196.34,44.265 197.34,43.265 198.5,42.5 Z"/></g>
<g><path style="opacity:1" fill="#f2ae34" d="M 297.5,25.5 C 296.032,27.6397 294.365,29.8064 292.5,32C 294.092,36.7401 295.426,41.5734 296.5,46.5C 296.079,50.7798 295.079,54.7798 293.5,58.5C 293.88,56.302 293.213,54.6354 291.5,53.5C 291.5,53.1667 291.5,52.8333 291.5,52.5C 291.477,50.4004 292.144,48.5671 293.5,47C 292.968,44.9803 291.635,44.147 289.5,44.5C 291.443,43.7089 292.443,42.2089 292.5,40C 291.583,37.0277 290.583,34.1944 289.5,31.5C 287.369,30.6862 285.036,30.1862 282.5,30C 284.952,29.7105 287.285,29.0438 289.5,28C 290.869,24.8082 293.202,22.6415 296.5,21.5C 297.429,22.6888 297.762,24.0222 297.5,25.5 Z"/></g>
<g><path style="opacity:1" fill="#efac80" d="M 139.5,20.5 C 137.143,20.3367 134.81,20.5034 132.5,21C 128.913,27.2302 127.58,34.0635 128.5,41.5C 128.5,42.8333 128.5,44.1667 128.5,45.5C 128.995,51.7754 128.995,58.1087 128.5,64.5C 127.833,63.1667 127.167,61.8333 126.5,60.5C 125.227,48.1648 125.727,35.8315 128,23.5C 128.273,21.6711 129.107,20.1711 130.5,19C 133.817,18.2191 136.817,18.7191 139.5,20.5 Z"/></g>
<g><path style="opacity:1" fill="#eebb40" d="M 219.5,25.5 C 220.496,25.4142 221.329,25.7476 222,26.5C 225.707,32.9481 225.207,38.9481 220.5,44.5C 219.596,45.209 219.263,46.209 219.5,47.5C 214.968,47.8182 210.634,47.4849 206.5,46.5C 205.265,43.6987 203.765,41.0321 202,38.5C 201.333,35.8333 201.333,33.1667 202,30.5C 202.278,29.5842 202.778,28.9175 203.5,28.5C 203.5,31.5 203.5,34.5 203.5,37.5C 205.144,37.7135 206.644,37.3802 208,36.5C 209.149,39.3926 209.649,42.3926 209.5,45.5C 212.5,45.5 215.5,45.5 218.5,45.5C 218.5,43.5 218.5,41.5 218.5,39.5C 219.833,39.5 221.167,39.5 222.5,39.5C 222.686,34.5079 221.686,29.8413 219.5,25.5 Z"/></g>
<g><path style="opacity:1" fill="#f29e62" d="M 134.5,39.5 C 134.5,40.5 134.5,41.5 134.5,42.5C 136.806,42.9926 139.139,43.3259 141.5,43.5C 141.833,43.5 142.167,43.5 142.5,43.5C 144.189,45.8534 146.522,47.52 149.5,48.5C 146.534,48.8717 144.2,50.205 142.5,52.5C 139.397,50.6876 136.064,49.6876 132.5,49.5C 132.799,45.9351 131.465,44.6018 128.5,45.5C 128.5,44.1667 128.5,42.8333 128.5,41.5C 130.886,41.7413 132.886,41.0746 134.5,39.5 Z"/></g>
<g><path style="opacity:1" fill="#f3bf76" d="M 267.5,41.5 C 258.978,48.0299 253.311,56.5299 250.5,67C 251.872,67.4017 253.205,67.9017 254.5,68.5C 256.818,64.151 259.818,60.4844 263.5,57.5C 263.5,58.1667 263.5,58.8333 263.5,59.5C 262.185,61.1347 262.185,62.8014 263.5,64.5C 261.955,65.4519 260.288,65.7852 258.5,65.5C 258.64,67.1238 257.973,68.2904 256.5,69C 254.19,69.4966 251.857,69.6633 249.5,69.5C 249.517,67.4352 249.85,65.4352 250.5,63.5C 251.642,59.9288 252.309,56.2621 252.5,52.5C 253.822,52.67 254.989,52.3366 256,51.5C 256.333,49.8333 256.667,48.1667 257,46.5C 257.893,47.7112 258.726,47.7112 259.5,46.5C 258.41,45.3914 258.41,44.3914 259.5,43.5C 261.071,42.6906 262.738,42.3573 264.5,42.5C 265.391,41.8902 266.391,41.5569 267.5,41.5 Z"/></g>
<g><path style="opacity:1" fill="#f6a155" d="M 176.5,45.5 C 177.958,48.8673 179.624,52.2006 181.5,55.5C 182.474,57.7427 182.808,60.076 182.5,62.5C 181.849,63.0906 181.182,63.7573 180.5,64.5C 179.165,62.7988 177.832,61.1321 176.5,59.5C 174.547,55.9307 172.881,52.264 171.5,48.5C 172.85,47.5169 173.85,46.1836 174.5,44.5C 175.183,44.8627 175.85,45.1961 176.5,45.5 Z"/></g>
<g><path style="opacity:1" fill="#f1ab7a" d="M 142.5,43.5 C 148.993,45.5745 154.66,48.9078 159.5,53.5C 156.744,51.7474 153.744,50.9141 150.5,51C 151.308,51.3076 151.975,51.8076 152.5,52.5C 149.662,53.5123 148.329,55.5123 148.5,58.5C 144.976,56.6527 141.31,54.986 137.5,53.5C 137.167,54.1667 136.833,54.8333 136.5,55.5C 137.735,62.6191 140.068,69.2857 143.5,75.5C 140.507,74.0846 138.674,71.7513 138,68.5C 136.989,69.3366 135.822,69.67 134.5,69.5C 134.955,67.6334 135.622,65.8001 136.5,64C 134.772,60.2267 134.439,56.3934 135.5,52.5C 134.23,51.7124 133.23,50.7124 132.5,49.5C 136.064,49.6876 139.397,50.6876 142.5,52.5C 144.2,50.205 146.534,48.8717 149.5,48.5C 146.522,47.52 144.189,45.8534 142.5,43.5 Z"/></g>
<g><path style="opacity:1" fill="#b4b3b3" d="M 220.5,44.5 C 222.387,51.674 219.887,56.3406 213,58.5C 206.531,56.5877 204.364,52.5877 206.5,46.5C 210.634,47.4849 214.968,47.8182 219.5,47.5C 219.263,46.209 219.596,45.209 220.5,44.5 Z"/></g>
<g><path style="opacity:1" fill="#f0c68c" d="M 250.5,43.5 C 248.467,46.5626 246.801,49.8959 245.5,53.5C 245.043,54.2975 244.376,54.6309 243.5,54.5C 244.589,49.9777 246.922,46.311 250.5,43.5 Z"/></g>
<g><path style="opacity:1" fill="#f6ab37" d="M 297.5,25.5 C 297.561,28.4877 296.895,31.3211 295.5,34C 296.729,37.6398 298.063,41.1398 299.5,44.5C 300.442,54.8876 298.442,63.8876 293.5,71.5C 292.914,71.2907 292.414,70.9574 292,70.5C 291.805,66.4257 292.305,62.4257 293.5,58.5C 295.079,54.7798 296.079,50.7798 296.5,46.5C 295.426,41.5734 294.092,36.7401 292.5,32C 294.365,29.8064 296.032,27.6397 297.5,25.5 Z"/></g>
<g><path style="opacity:1" fill="#f2a56a" d="M 159.5,53.5 C 162.188,54.8549 164.188,56.8549 165.5,59.5C 168.493,64.2064 167.659,68.2064 163,71.5C 162.578,69.5743 161.411,68.5743 159.5,68.5C 156.023,64.9331 152.356,61.5998 148.5,58.5C 148.329,55.5123 149.662,53.5123 152.5,52.5C 151.975,51.8076 151.308,51.3076 150.5,51C 153.744,50.9141 156.744,51.7474 159.5,53.5 Z"/></g>
<g><path style="opacity:1" fill="#f3ab3e" d="M 289.5,44.5 C 291.635,44.147 292.968,44.9803 293.5,47C 292.144,48.5671 291.477,50.4004 291.5,52.5C 282.716,53.1265 275.716,56.9598 270.5,64C 269.552,64.4828 268.552,64.6495 267.5,64.5C 266.956,62.4205 266.122,60.4205 265,58.5C 264.617,59.056 264.117,59.3893 263.5,59.5C 263.5,58.8333 263.5,58.1667 263.5,57.5C 266.723,55.9525 269.39,53.6192 271.5,50.5C 271.842,49.6618 272.508,49.3284 273.5,49.5C 274.873,49.6567 276.207,49.49 277.5,49C 280.987,46.088 284.987,44.588 289.5,44.5 Z"/></g>
<g><path style="opacity:1" fill="#f3a947" d="M 270.5,27.5 C 270.719,28.675 270.386,29.675 269.5,30.5C 264.965,31.5258 262.465,34.1925 262,38.5C 263.706,39.3079 264.539,40.6412 264.5,42.5C 262.738,42.3573 261.071,42.6906 259.5,43.5C 258.41,44.3914 258.41,45.3914 259.5,46.5C 258.726,47.7112 257.893,47.7112 257,46.5C 256.667,48.1667 256.333,49.8333 256,51.5C 254.989,52.3366 253.822,52.67 252.5,52.5C 252.309,56.2621 251.642,59.9288 250.5,63.5C 248.18,65.2261 245.513,65.8928 242.5,65.5C 242.552,61.8019 242.886,58.1352 243.5,54.5C 244.376,54.6309 245.043,54.2975 245.5,53.5C 246.801,49.8959 248.467,46.5626 250.5,43.5C 253.833,40.8333 256.833,37.8333 259.5,34.5C 262.311,30.922 265.978,28.5886 270.5,27.5 Z"/></g>
<g><path style="opacity:0.965" fill="#efc787" d="M 271.5,50.5 C 269.39,53.6192 266.723,55.9525 263.5,57.5C 265.523,54.4797 268.19,52.1464 271.5,50.5 Z"/></g>
<g><path style="opacity:1" fill="#f2c789" d="M 291.5,52.5 C 291.5,52.8333 291.5,53.1667 291.5,53.5C 291.768,55.099 291.434,56.4324 290.5,57.5C 290.762,56.0222 290.429,54.6888 289.5,53.5C 278.596,57.2407 270.263,64.074 264.5,74C 267.02,75.6971 269.353,77.5305 271.5,79.5C 265.72,79.4086 263.386,76.742 264.5,71.5C 264.714,69.8561 264.38,68.3561 263.5,67C 265.437,66.8784 266.77,66.045 267.5,64.5C 268.552,64.6495 269.552,64.4828 270.5,64C 275.716,56.9598 282.716,53.1265 291.5,52.5 Z"/></g>
<g><path style="opacity:1" fill="#eeae75" d="M 176.5,43.5 C 181.936,49.0382 185.269,55.7049 186.5,63.5C 185.041,63.5674 183.708,63.2341 182.5,62.5C 182.808,60.076 182.474,57.7427 181.5,55.5C 179.624,52.2006 177.958,48.8673 176.5,45.5C 176.5,44.8333 176.5,44.1667 176.5,43.5 Z"/></g>
<g><path style="opacity:0.055" fill="#fee8d0" d="M 126.5,60.5 C 127.167,61.8333 127.833,63.1667 128.5,64.5C 128.5,65.1667 128.5,65.8333 128.5,66.5C 128.5,66.8333 128.5,67.1667 128.5,67.5C 126.837,65.5615 126.171,63.2282 126.5,60.5 Z"/></g>
<g><path style="opacity:0.767" fill="#f0bd8a" d="M 186.5,63.5 C 204.538,63.5273 222.538,63.5273 240.5,63.5C 238.365,65.369 235.698,66.0356 232.5,65.5C 222.681,64.506 212.681,64.1726 202.5,64.5C 198.476,64.5029 194.476,64.8362 190.5,65.5C 188.667,65.4146 187.334,64.7479 186.5,63.5 Z"/></g>
<g><path style="opacity:1" fill="#f49c68" d="M 132.5,49.5 C 133.23,50.7124 134.23,51.7124 135.5,52.5C 134.439,56.3934 134.772,60.2267 136.5,64C 135.622,65.8001 134.955,67.6334 134.5,69.5C 135.822,69.67 136.989,69.3366 138,68.5C 138.674,71.7513 140.507,74.0846 143.5,75.5C 145.806,78.4729 148.473,81.1395 151.5,83.5C 152.167,83.5 152.833,83.5 153.5,83.5C 153.033,85.711 152.033,87.711 150.5,89.5C 149.167,90.8333 147.833,90.8333 146.5,89.5C 145.702,89.9569 145.369,90.6236 145.5,91.5C 142.959,88.799 140.626,85.799 138.5,82.5C 142.469,80.5965 142.303,78.9298 138,77.5C 137.558,79.6785 136.558,80.3452 135,79.5C 134,76.1667 133,72.8333 132,69.5C 131.578,67.5743 130.411,66.5743 128.5,66.5C 128.5,65.8333 128.5,65.1667 128.5,64.5C 128.995,58.1087 128.995,51.7754 128.5,45.5C 131.465,44.6018 132.799,45.9351 132.5,49.5 Z"/></g>
<g><path style="opacity:1" fill="#efae7a" d="M 164.5,45.5 C 166.844,46.6716 169.177,46.6716 171.5,45.5C 172.087,46.2334 172.087,47.2334 171.5,48.5C 172.881,52.264 174.547,55.9307 176.5,59.5C 176.918,62.0896 177.918,64.4229 179.5,66.5C 177.244,67.4209 176.244,69.0876 176.5,71.5C 173.728,71.78 171.228,71.1134 169,69.5C 167.008,70.3281 165.508,71.6614 164.5,73.5C 163.732,74.2625 163.232,75.2625 163,76.5C 162.329,77.2524 161.496,77.5858 160.5,77.5C 161.167,76.5 161.833,75.5 162.5,74.5C 161.5,72.5 160.5,70.5 159.5,68.5C 161.411,68.5743 162.578,69.5743 163,71.5C 167.659,68.2064 168.493,64.2064 165.5,59.5C 168.161,62.1708 170.494,65.1708 172.5,68.5C 173.931,68.0234 175.264,67.3567 176.5,66.5C 173.78,58.7224 169.78,51.7224 164.5,45.5 Z"/></g>
<g><path style="opacity:1" fill="#f2a64e" d="M 243.5,54.5 C 242.886,58.1352 242.552,61.8019 242.5,65.5C 245.513,65.8928 248.18,65.2261 250.5,63.5C 249.85,65.4352 249.517,67.4352 249.5,69.5C 245.368,66.3685 243.035,67.0352 242.5,71.5C 243.949,72.1719 245.282,72.8386 246.5,73.5C 245.081,74.4511 243.415,74.7845 241.5,74.5C 240.833,74.5 240.167,74.5 239.5,74.5C 237.833,73.8333 236.167,73.1667 234.5,72.5C 237.045,71.5624 237.545,70.2291 236,68.5C 232.062,69.9545 228.229,69.7878 224.5,68C 226.927,66.4086 229.593,65.5752 232.5,65.5C 235.698,66.0356 238.365,65.369 240.5,63.5C 240.528,60.0836 241.528,57.0836 243.5,54.5 Z"/></g>
<g><path style="opacity:1" fill="#f1b350" d="M 299.5,36.5 C 299.833,36.5 300.167,36.5 300.5,36.5C 301.784,44.6287 301.784,52.6287 300.5,60.5C 298.215,66.4228 295.881,72.4228 293.5,78.5C 293.573,80.0269 292.906,81.0269 291.5,81.5C 291.167,81.5 290.833,81.5 290.5,81.5C 290.38,80.4138 289.713,79.7472 288.5,79.5C 287.136,80.0431 285.803,80.2098 284.5,80C 286.241,78.3804 288.075,76.8804 290,75.5C 290.393,73.2837 289.893,71.2837 288.5,69.5C 290.22,66.1108 290.887,62.4441 290.5,58.5C 290.5,58.1667 290.5,57.8333 290.5,57.5C 291.434,56.4324 291.768,55.099 291.5,53.5C 293.213,54.6354 293.88,56.302 293.5,58.5C 292.305,62.4257 291.805,66.4257 292,70.5C 292.414,70.9574 292.914,71.2907 293.5,71.5C 298.442,63.8876 300.442,54.8876 299.5,44.5C 299.5,41.8333 299.5,39.1667 299.5,36.5 Z"/></g>
<g><path style="opacity:0.357" fill="#fae3b8" d="M 300.5,60.5 C 300.579,63.2706 300.079,65.9373 299,68.5C 297.914,72.3464 296.081,75.6797 293.5,78.5C 295.881,72.4228 298.215,66.4228 300.5,60.5 Z"/></g>
<g><path style="opacity:1" fill="#f4a253" d="M 202.5,64.5 C 212.681,64.1726 222.681,64.506 232.5,65.5C 229.593,65.5752 226.927,66.4086 224.5,68C 228.229,69.7878 232.062,69.9545 236,68.5C 237.545,70.2291 237.045,71.5624 234.5,72.5C 220.167,72.5 205.833,72.5 191.5,72.5C 189.245,70.6197 186.578,69.6197 183.5,69.5C 183.238,68.0222 183.571,66.6888 184.5,65.5C 187.648,66.2122 190.814,66.8789 194,67.5C 196.786,66.1325 199.62,65.1325 202.5,64.5 Z"/></g>
<g><path style="opacity:1" fill="#f4a646" d="M 267.5,64.5 C 266.77,66.045 265.437,66.8784 263.5,67C 264.38,68.3561 264.714,69.8561 264.5,71.5C 262.836,72.9488 262.002,74.9488 262,77.5C 261.311,76.6433 260.478,75.9767 259.5,75.5C 258.369,76.7515 257.036,77.7515 255.5,78.5C 254.263,78.4435 253.263,77.9435 252.5,77C 255.267,76.3308 255.767,75.1641 254,73.5C 252.715,73.9504 251.548,74.6171 250.5,75.5C 249.378,74.3698 248.044,73.7031 246.5,73.5C 245.282,72.8386 243.949,72.1719 242.5,71.5C 243.035,67.0352 245.368,66.3685 249.5,69.5C 251.857,69.6633 254.19,69.4966 256.5,69C 257.973,68.2904 258.64,67.1238 258.5,65.5C 260.288,65.7852 261.955,65.4519 263.5,64.5C 262.185,62.8014 262.185,61.1347 263.5,59.5C 264.117,59.3893 264.617,59.056 265,58.5C 266.122,60.4205 266.956,62.4205 267.5,64.5 Z"/></g>
<g><path style="opacity:1" fill="#efc282" d="M 290.5,58.5 C 290.887,62.4441 290.22,66.1108 288.5,69.5C 286.837,71.4927 285.67,73.8261 285,76.5C 283.385,77.3862 281.885,78.3862 280.5,79.5C 284.645,72.8771 287.978,65.8771 290.5,58.5 Z"/></g>
<g><path style="opacity:1" fill="#f49f5d" d="M 176.5,59.5 C 177.832,61.1321 179.165,62.7988 180.5,64.5C 181.182,63.7573 181.849,63.0906 182.5,62.5C 183.708,63.2341 185.041,63.5674 186.5,63.5C 187.334,64.7479 188.667,65.4146 190.5,65.5C 194.476,64.8362 198.476,64.5029 202.5,64.5C 199.62,65.1325 196.786,66.1325 194,67.5C 190.814,66.8789 187.648,66.2122 184.5,65.5C 183.571,66.6888 183.238,68.0222 183.5,69.5C 186.578,69.6197 189.245,70.6197 191.5,72.5C 185.589,72.9684 180.256,74.8018 175.5,78C 172.632,79.383 169.632,80.2163 166.5,80.5C 167.301,78.9582 167.634,77.2915 167.5,75.5C 165.821,75.7148 164.821,75.0481 164.5,73.5C 165.508,71.6614 167.008,70.3281 169,69.5C 171.228,71.1134 173.728,71.78 176.5,71.5C 176.244,69.0876 177.244,67.4209 179.5,66.5C 177.918,64.4229 176.918,62.0896 176.5,59.5 Z"/></g>
<g><path style="opacity:0.256" fill="#fee3c6" d="M 231.5,74.5 C 215.42,73.9887 199.42,74.6554 183.5,76.5C 185.476,74.9891 187.809,74.1558 190.5,74C 204.34,73.1728 218.006,73.3395 231.5,74.5 Z"/></g>
<g><path style="opacity:0.71" fill="#fbdeb6" d="M 233.5,74.5 C 235.5,74.5 237.5,74.5 239.5,74.5C 240.167,74.5 240.833,74.5 241.5,74.5C 243.5,75.5 245.5,76.5 247.5,77.5C 242.717,76.4915 238.05,75.4915 233.5,74.5 Z"/></g>
<g><path style="opacity:1" fill="#f1ac57" d="M 264.5,71.5 C 263.386,76.742 265.72,79.4086 271.5,79.5C 273.129,80.6253 274.629,81.9586 276,83.5C 277.307,81.8082 278.807,80.4749 280.5,79.5C 279.757,83.3364 277.424,85.0031 273.5,84.5C 273.5,85.5 273.5,86.5 273.5,87.5C 269.814,87.13 268.814,88.4633 270.5,91.5C 269.833,91.5 269.167,91.5 268.5,91.5C 262.289,85.5676 255.289,80.9009 247.5,77.5C 245.5,76.5 243.5,75.5 241.5,74.5C 243.415,74.7845 245.081,74.4511 246.5,73.5C 248.044,73.7031 249.378,74.3698 250.5,75.5C 251.548,74.6171 252.715,73.9504 254,73.5C 255.767,75.1641 255.267,76.3308 252.5,77C 253.263,77.9435 254.263,78.4435 255.5,78.5C 257.036,77.7515 258.369,76.7515 259.5,75.5C 260.478,75.9767 261.311,76.6433 262,77.5C 262.002,74.9488 262.836,72.9488 264.5,71.5 Z"/></g>
<g><path style="opacity:0.898" fill="#f4ccb1" d="M 162.5,74.5 C 161.833,75.5 161.167,76.5 160.5,77.5C 157.553,78.7805 155.219,80.7805 153.5,83.5C 152.833,83.5 152.167,83.5 151.5,83.5C 154.29,79.3717 157.957,76.3717 162.5,74.5 Z"/></g>
<g><path style="opacity:1" fill="#f4a844" d="M 288.5,69.5 C 289.893,71.2837 290.393,73.2837 290,75.5C 288.075,76.8804 286.241,78.3804 284.5,80C 285.803,80.2098 287.136,80.0431 288.5,79.5C 289.713,79.7472 290.38,80.4138 290.5,81.5C 287.921,82.2276 285.254,82.7276 282.5,83C 283.624,83.2492 284.624,83.7492 285.5,84.5C 282.211,86.9776 278.544,88.6442 274.5,89.5C 273.702,89.0431 273.369,88.3764 273.5,87.5C 273.5,86.5 273.5,85.5 273.5,84.5C 277.424,85.0031 279.757,83.3364 280.5,79.5C 281.885,78.3862 283.385,77.3862 285,76.5C 285.67,73.8261 286.837,71.4927 288.5,69.5 Z"/></g>
<g><path style="opacity:1" fill="#eeaf80" d="M 191.5,72.5 C 205.833,72.5 220.167,72.5 234.5,72.5C 236.167,73.1667 237.833,73.8333 239.5,74.5C 237.5,74.5 235.5,74.5 233.5,74.5C 232.833,74.5 232.167,74.5 231.5,74.5C 218.006,73.3395 204.34,73.1728 190.5,74C 187.809,74.1558 185.476,74.9891 183.5,76.5C 173.674,79.7559 165.008,85.0892 157.5,92.5C 157.5,90.5 157.5,88.5 157.5,86.5C 159.798,85.6897 162.132,84.8564 164.5,84C 164.167,83.6667 163.833,83.3333 163.5,83C 164.833,82.6667 166.167,82.3333 167.5,82C 166.833,81.6667 166.167,81.3333 165.5,81C 165.728,80.6012 166.062,80.4346 166.5,80.5C 169.632,80.2163 172.632,79.383 175.5,78C 180.256,74.8018 185.589,72.9684 191.5,72.5 Z"/></g>
<g><path style="opacity:1" fill="#f1c183" d="M 289.5,84.5 C 287.73,87.4464 285.73,90.2797 283.5,93C 285.92,97.0059 287.92,101.173 289.5,105.5C 284.547,101.002 281.88,95.3356 281.5,88.5C 284.95,89.2436 286.616,87.9103 286.5,84.5C 287.5,84.5 288.5,84.5 289.5,84.5 Z"/></g>
<g><path style="opacity:1" fill="#f49b65" d="M 164.5,73.5 C 164.821,75.0481 165.821,75.7148 167.5,75.5C 167.634,77.2915 167.301,78.9582 166.5,80.5C 166.062,80.4346 165.728,80.6012 165.5,81C 166.167,81.3333 166.833,81.6667 167.5,82C 166.167,82.3333 164.833,82.6667 163.5,83C 163.833,83.3333 164.167,83.6667 164.5,84C 162.132,84.8564 159.798,85.6897 157.5,86.5C 157.5,88.5 157.5,90.5 157.5,92.5C 155.833,92.5 154.167,92.5 152.5,92.5C 152.657,93.8734 152.49,95.2068 152,96.5C 151.586,96.0426 151.086,95.7093 150.5,95.5C 149.333,99.7942 147.999,100.128 146.5,96.5C 146.833,95.8333 147.167,95.1667 147.5,94.5C 146.388,93.7348 145.721,92.7348 145.5,91.5C 145.369,90.6236 145.702,89.9569 146.5,89.5C 147.833,90.8333 149.167,90.8333 150.5,89.5C 152.033,87.711 153.033,85.711 153.5,83.5C 155.219,80.7805 157.553,78.7805 160.5,77.5C 161.496,77.5858 162.329,77.2524 163,76.5C 163.232,75.2625 163.732,74.2625 164.5,73.5 Z"/></g>
<g><path style="opacity:1" fill="#f3c083" d="M 268.5,91.5 C 269.167,91.5 269.833,91.5 270.5,91.5C 272.718,93.3737 275.051,95.207 277.5,97C 276.941,97.7247 276.608,98.5581 276.5,99.5C 279.329,104.486 280.996,109.82 281.5,115.5C 278.757,106.683 274.423,98.6827 268.5,91.5 Z"/></g>
<g><path style="opacity:1" fill="#f0ab89" d="M 128.5,66.5 C 130.411,66.5743 131.578,67.5743 132,69.5C 133,72.8333 134,76.1667 135,79.5C 136.558,80.3452 137.558,79.6785 138,77.5C 142.303,78.9298 142.469,80.5965 138.5,82.5C 140.626,85.799 142.959,88.799 145.5,91.5C 145.721,92.7348 146.388,93.7348 147.5,94.5C 147.167,95.1667 146.833,95.8333 146.5,96.5C 147.999,100.128 149.333,99.7942 150.5,95.5C 151.086,95.7093 151.586,96.0426 152,96.5C 152.49,95.2068 152.657,93.8734 152.5,92.5C 154.167,92.5 155.833,92.5 157.5,92.5C 150.31,101.387 145.977,111.553 144.5,123C 144.519,124.833 145.185,126.333 146.5,127.5C 145.167,127.5 143.833,127.5 142.5,127.5C 142.334,122.489 142.501,117.489 143,112.5C 143.333,112.833 143.667,113.167 144,113.5C 146.548,109.489 146.715,105.489 144.5,101.5C 142.386,102.034 140.552,103.034 139,104.5C 138.202,108.535 137.369,112.535 136.5,116.5C 135.045,120.618 134.045,124.951 133.5,129.5C 132.883,116.317 136.216,103.983 143.5,92.5C 136.382,85.3941 131.382,77.0608 128.5,67.5C 128.5,67.1667 128.5,66.8333 128.5,66.5 Z"/></g>
<g><path style="opacity:1" fill="#f2a74c" d="M 290.5,81.5 C 290.833,81.5 291.167,81.5 291.5,81.5C 291.573,83.0269 290.906,84.0269 289.5,84.5C 288.5,84.5 287.5,84.5 286.5,84.5C 286.616,87.9103 284.95,89.2436 281.5,88.5C 281.88,95.3356 284.547,101.002 289.5,105.5C 290.769,112.284 291.769,119.117 292.5,126C 292.494,128.033 292.161,129.866 291.5,131.5C 291.762,130.022 291.429,128.689 290.5,127.5C 289.158,129.005 287.492,129.672 285.5,129.5C 284.993,125.33 286.659,122.33 290.5,120.5C 289.568,117.47 288.235,114.637 286.5,112C 288.107,110.951 288.773,109.451 288.5,107.5C 287.5,107.5 286.5,107.5 285.5,107.5C 284.911,114.485 284.578,121.485 284.5,128.5C 282.5,129.167 280.5,129.833 278.5,130.5C 279.551,129.778 280.218,128.778 280.5,127.5C 281.5,127.5 282.5,127.5 283.5,127.5C 283.665,124.15 283.498,120.817 283,117.5C 282.722,116.584 282.222,115.918 281.5,115.5C 280.996,109.82 279.329,104.486 276.5,99.5C 276.608,98.5581 276.941,97.7247 277.5,97C 275.051,95.207 272.718,93.3737 270.5,91.5C 268.814,88.4633 269.814,87.13 273.5,87.5C 273.369,88.3764 273.702,89.0431 274.5,89.5C 278.544,88.6442 282.211,86.9776 285.5,84.5C 284.624,83.7492 283.624,83.2492 282.5,83C 285.254,82.7276 287.921,82.2276 290.5,81.5 Z"/></g>
<g><path style="opacity:1" fill="#f59772" d="M 142.5,127.5 C 141.549,128.919 141.216,130.585 141.5,132.5C 140.167,132.5 138.833,132.5 137.5,132.5C 137.222,129.71 137.889,127.21 139.5,125C 139.2,122.976 138.367,122.476 137,123.5C 136.503,121.19 136.337,118.857 136.5,116.5C 137.369,112.535 138.202,108.535 139,104.5C 140.552,103.034 142.386,102.034 144.5,101.5C 146.715,105.489 146.548,109.489 144,113.5C 143.667,113.167 143.333,112.833 143,112.5C 142.501,117.489 142.334,122.489 142.5,127.5 Z"/></g>
<g><path style="opacity:1" fill="#edb492" d="M 189.5,119.5 C 188.127,119.657 186.793,119.49 185.5,119C 182.458,116.916 179.458,114.749 176.5,112.5C 175.416,112.685 174.416,113.018 173.5,113.5C 173.965,110.527 175.632,109.36 178.5,110C 182.359,113.032 186.026,116.198 189.5,119.5 Z"/></g>
<g><path style="opacity:0.816" fill="#daae8c" d="M 108.5,110.5 C 107.662,110.842 107.328,111.508 107.5,112.5C 101.767,109.516 96.7672,110.516 92.5,115.5C 85.9196,108.69 79.7529,109.023 74,116.5C 65.9919,111.038 59.1586,112.371 53.5,120.5C 45.1932,116.151 37.8599,117.484 31.5,124.5C 31.1583,123.662 30.4916,123.328 29.5,123.5C 35.1555,115.713 42.6555,113.379 52,116.5C 58.5077,109.853 65.841,108.853 74,113.5C 76.183,109.759 79.5163,108.093 84,108.5C 87.2968,108.234 90.1301,109.234 92.5,111.5C 95.0234,109.143 98.0234,108.143 101.5,108.5C 104.205,108.316 106.538,108.983 108.5,110.5 Z"/></g>
<g><path style="opacity:1" fill="#ebc4a6" d="M 173.5,113.5 C 173.322,114.695 172.989,115.862 172.5,117C 173.65,118.981 174.984,120.814 176.5,122.5C 172.896,121.412 171.063,119.079 171,115.5C 171.708,114.619 172.542,113.953 173.5,113.5 Z"/></g>
<g><path style="opacity:1" fill="#ba9276" d="M 108.5,110.5 C 112.785,116.288 117.619,121.621 123,126.5C 124.499,129.972 124.666,133.472 123.5,137C 126.267,142.415 126.934,147.915 125.5,153.5C 124.566,152.432 124.232,151.099 124.5,149.5C 124.043,145.22 122.709,141.22 120.5,137.5C 122.799,129.098 119.966,123.098 112,119.5C 111.096,116.767 109.596,114.433 107.5,112.5C 107.328,111.508 107.662,110.842 108.5,110.5 Z"/></g>
<g><path style="opacity:1" fill="#f0b685" d="M 243.5,147.5 C 243.5,147.833 243.5,148.167 243.5,148.5C 242.552,149.978 241.219,150.978 239.5,151.5C 238.182,148.742 237.515,145.576 237.5,142C 237.667,138.833 237.833,135.667 238,132.5C 239.323,128.082 240.49,123.416 241.5,118.5C 243.861,118.326 246.194,117.993 248.5,117.5C 248.756,115.088 247.756,113.421 245.5,112.5C 243.87,114.264 241.87,115.264 239.5,115.5C 241.127,113.37 242.96,111.37 245,109.5C 247.683,112.016 250.183,114.683 252.5,117.5C 247.768,122.062 243.602,127.062 240,132.5C 239.333,138.167 239.333,143.833 240,149.5C 240.816,148.177 241.983,147.511 243.5,147.5 Z"/></g>
<g><path style="opacity:0.706" fill="#f5ce9d" d="M 289.5,105.5 C 293.534,114.104 294.701,123.104 293,132.5C 291.887,133.305 290.721,133.972 289.5,134.5C 289.427,132.973 290.094,131.973 291.5,131.5C 292.161,129.866 292.494,128.033 292.5,126C 291.769,119.117 290.769,112.284 289.5,105.5 Z"/></g>
<g><path style="opacity:1" fill="#f49b68" d="M 189.5,119.5 C 189.833,119.5 190.167,119.5 190.5,119.5C 190.5,121.5 190.5,123.5 190.5,125.5C 195.089,127.494 197.089,131.161 196.5,136.5C 196.663,138.857 196.497,141.19 196,143.5C 195.808,141.423 195.308,139.423 194.5,137.5C 193.833,138.833 193.167,140.167 192.5,141.5C 192.167,141.333 191.833,141.167 191.5,141C 190.544,137.606 190.211,134.106 190.5,130.5C 189.5,130.5 188.5,130.5 187.5,130.5C 185.57,125.436 181.904,122.769 176.5,122.5C 174.984,120.814 173.65,118.981 172.5,117C 172.989,115.862 173.322,114.695 173.5,113.5C 174.416,113.018 175.416,112.685 176.5,112.5C 179.458,114.749 182.458,116.916 185.5,119C 186.793,119.49 188.127,119.657 189.5,119.5 Z"/></g>
<g><path style="opacity:0.4" fill="#f6d2b0" d="M 281.5,115.5 C 282.222,115.918 282.722,116.584 283,117.5C 283.498,120.817 283.665,124.15 283.5,127.5C 282.5,127.5 281.5,127.5 280.5,127.5C 281.815,126.333 282.481,124.833 282.5,123C 281.841,120.538 281.507,118.038 281.5,115.5 Z"/></g>
<g><path style="opacity:1" fill="#f5a44c" d="M 291.5,131.5 C 290.094,131.973 289.427,132.973 289.5,134.5C 286.639,134.342 283.972,135.008 281.5,136.5C 280.584,136.457 279.917,136.124 279.5,135.5C 279.167,134.5 278.5,133.833 277.5,133.5C 277.557,132.391 277.89,131.391 278.5,130.5C 280.5,129.833 282.5,129.167 284.5,128.5C 284.578,121.485 284.911,114.485 285.5,107.5C 286.5,107.5 287.5,107.5 288.5,107.5C 288.773,109.451 288.107,110.951 286.5,112C 288.235,114.637 289.568,117.47 290.5,120.5C 286.659,122.33 284.993,125.33 285.5,129.5C 287.492,129.672 289.158,129.005 290.5,127.5C 291.429,128.689 291.762,130.022 291.5,131.5 Z"/></g>
<g><path style="opacity:1" fill="#f59879" d="M 136.5,116.5 C 136.337,118.857 136.503,121.19 137,123.5C 138.367,122.476 139.2,122.976 139.5,125C 137.889,127.21 137.222,129.71 137.5,132.5C 138.833,132.5 140.167,132.5 141.5,132.5C 141.216,130.585 141.549,128.919 142.5,127.5C 143.833,127.5 145.167,127.5 146.5,127.5C 146.561,129.592 147.561,131.092 149.5,132C 148.044,132.423 147.544,133.256 148,134.5C 150.837,132.947 153.337,133.28 155.5,135.5C 154.203,137.4 152.37,138.4 150,138.5C 147.863,137.923 145.696,137.59 143.5,137.5C 140.394,136.293 137.394,134.793 134.5,133C 133.663,131.989 133.33,130.822 133.5,129.5C 134.045,124.951 135.045,120.618 136.5,116.5 Z"/></g>
<g><path style="opacity:1" fill="#f29f5d" d="M 239.5,151.5 C 239.217,152.289 238.717,152.956 238,153.5C 234.621,151.782 233.954,149.449 236,146.5C 236.667,143.5 236.667,140.5 236,137.5C 235.203,141.224 234.203,144.89 233,148.5C 232.658,146.381 231.825,146.047 230.5,147.5C 230.334,141.158 230.5,134.825 231,128.5C 233.265,123.747 236.098,119.413 239.5,115.5C 241.87,115.264 243.87,114.264 245.5,112.5C 247.756,113.421 248.756,115.088 248.5,117.5C 246.194,117.993 243.861,118.326 241.5,118.5C 240.49,123.416 239.323,128.082 238,132.5C 237.833,135.667 237.667,138.833 237.5,142C 237.515,145.576 238.182,148.742 239.5,151.5 Z"/></g>
<g><path style="opacity:1" fill="#c89f83" d="M 29.5,123.5 C 30.4916,123.328 31.1583,123.662 31.5,124.5C 29.936,128.674 29.2694,133.007 29.5,137.5C 24.87,137.741 21.7034,140.075 20,144.5C 19.4785,149.63 21.3119,153.797 25.5,157C 19.5096,166.677 22.1762,172.344 33.5,174C 36.2554,178.862 40.2554,182.028 45.5,183.5C 44.5084,183.328 43.8417,183.662 43.5,184.5C 38.9164,183.428 35.2497,180.928 32.5,177C 21.3754,174.577 17.7088,168.077 21.5,157.5C 14.9978,148.107 16.4978,140.44 26,134.5C 26.711,130.645 27.8777,126.979 29.5,123.5 Z"/></g>
<g><path style="opacity:1" fill="#ecad84" d="M 239.5,115.5 C 236.098,119.413 233.265,123.747 231,128.5C 230.5,134.825 230.334,141.158 230.5,147.5C 230.203,151.767 230.536,155.934 231.5,160C 229.618,160.198 227.952,160.698 226.5,161.5C 224.057,164.009 221.39,166.342 218.5,168.5C 213.79,174.26 210.457,173.593 208.5,166.5C 210.148,167.81 211.814,169.143 213.5,170.5C 218.152,166.349 222.652,162.015 227,157.5C 228.28,148.267 228.947,138.934 229,129.5C 230.796,123.539 234.296,118.873 239.5,115.5 Z"/></g>
<g><path style="opacity:1" fill="#f1a388" d="M 146.5,127.5 C 156.794,132.313 166.794,137.646 176.5,143.5C 171.396,142.113 166.396,140.446 161.5,138.5C 161.5,139.5 161.5,140.5 161.5,141.5C 156.322,140.581 156.155,141.581 161,144.5C 161.833,144.333 162.667,144.167 163.5,144C 162.304,143.346 162.304,142.846 163.5,142.5C 164.635,144.707 165.301,147.04 165.5,149.5C 157.807,145.99 150.474,141.99 143.5,137.5C 145.696,137.59 147.863,137.923 150,138.5C 152.37,138.4 154.203,137.4 155.5,135.5C 153.337,133.28 150.837,132.947 148,134.5C 147.544,133.256 148.044,132.423 149.5,132C 147.561,131.092 146.561,129.592 146.5,127.5 Z"/></g>
<g><path style="opacity:1" fill="#f2c092" d="M 289.5,134.5 C 272.135,144.181 254.801,153.848 237.5,163.5C 236.662,163.158 236.328,162.492 236.5,161.5C 240.028,159.493 243.694,157.66 247.5,156C 247.167,155.667 246.833,155.333 246.5,155C 247.793,154.51 249.127,154.343 250.5,154.5C 250.5,153.167 250.5,151.833 250.5,150.5C 252.738,151.537 255.071,151.703 257.5,151C 258.252,150.329 258.586,149.496 258.5,148.5C 263.662,146.755 268.328,144.255 272.5,141C 274.556,140.689 276.556,140.189 278.5,139.5C 278.76,138.095 279.093,136.762 279.5,135.5C 279.917,136.124 280.584,136.457 281.5,136.5C 283.972,135.008 286.639,134.342 289.5,134.5 Z"/></g>
<g><path style="opacity:1" fill="#e8823b" d="M 73.5,145.5 C 73.5323,143.381 72.5323,142.048 70.5,141.5C 69.0222,141.762 67.6888,141.429 66.5,140.5C 66.7093,139.914 67.0426,139.414 67.5,139C 74.1361,136.72 77.8027,138.887 78.5,145.5C 76.8333,145.5 75.1667,145.5 73.5,145.5 Z"/></g>
<g><path style="opacity:1" fill="#f5a158" d="M 277.5,133.5 C 278.5,133.833 279.167,134.5 279.5,135.5C 279.093,136.762 278.76,138.095 278.5,139.5C 276.556,140.189 274.556,140.689 272.5,141C 268.328,144.255 263.662,146.755 258.5,148.5C 254.831,147.037 255.164,145.703 259.5,144.5C 261.959,138.75 266.293,135.083 272.5,133.5C 273.478,133.977 274.311,134.643 275,135.5C 275.708,134.619 276.542,133.953 277.5,133.5 Z"/></g>
<g><path style="opacity:0.98" fill="#eab194" d="M 176.5,122.5 C 181.904,122.769 185.57,125.436 187.5,130.5C 189.311,136.604 189.978,142.938 189.5,149.5C 187.5,149.5 185.5,149.5 183.5,149.5C 182.178,149.33 181.011,149.663 180,150.5C 178.807,148.114 177.64,145.78 176.5,143.5C 180.524,145.211 184.524,146.878 188.5,148.5C 188.933,142.166 187.766,136.166 185,130.5C 182.271,127.601 179.438,124.934 176.5,122.5 Z"/></g>
<g><path style="opacity:1" fill="#e79e6f" d="M 75.5,149.5 C 75.6495,148.448 75.4828,147.448 75,146.5C 73.4157,147.861 71.5824,148.528 69.5,148.5C 69.5,150.167 69.5,151.833 69.5,153.5C 68.5386,151.735 68.2053,149.735 68.5,147.5C 70.5138,147.608 72.1805,146.942 73.5,145.5C 75.1667,145.5 76.8333,145.5 78.5,145.5C 77.8027,138.887 74.1361,136.72 67.5,139C 67.0426,139.414 66.7093,139.914 66.5,140.5C 67.6888,141.429 69.0222,141.762 70.5,141.5C 68.8984,143.074 66.8984,143.741 64.5,143.5C 64.2606,141.533 64.5939,139.699 65.5,138C 69.9558,137.133 74.2891,137.466 78.5,139C 81.8323,143.87 80.8323,147.37 75.5,149.5 Z"/></g>
<g><path style="opacity:1" fill="#ecbb95" d="M 252.5,142.5 C 250.222,145.472 247.222,147.139 243.5,147.5C 246.144,145.277 249.144,143.611 252.5,142.5 Z"/></g>
<g><path style="opacity:1" fill="#f1a565" d="M 280.5,127.5 C 280.218,128.778 279.551,129.778 278.5,130.5C 277.89,131.391 277.557,132.391 277.5,133.5C 276.542,133.953 275.708,134.619 275,135.5C 274.311,134.643 273.478,133.977 272.5,133.5C 266.293,135.083 261.959,138.75 259.5,144.5C 255.164,145.703 254.831,147.037 258.5,148.5C 258.586,149.496 258.252,150.329 257.5,151C 255.071,151.703 252.738,151.537 250.5,150.5C 248.442,149.067 246.108,148.4 243.5,148.5C 243.5,148.167 243.5,147.833 243.5,147.5C 247.222,147.139 250.222,145.472 252.5,142.5C 261.539,136.98 270.872,131.98 280.5,127.5 Z"/></g>
<g><path style="opacity:1" fill="#e68745" d="M 75.5,149.5 C 74.7659,150.708 74.4326,152.041 74.5,153.5C 72.8333,153.5 71.1667,153.5 69.5,153.5C 69.5,151.833 69.5,150.167 69.5,148.5C 71.5824,148.528 73.4157,147.861 75,146.5C 75.4828,147.448 75.6495,148.448 75.5,149.5 Z"/></g>
<g><path style="opacity:1" fill="#edaa8f" d="M 165.5,149.5 C 168.216,149.678 170.883,150.178 173.5,151C 176.963,153.398 180.63,155.232 184.5,156.5C 186.167,158.5 187.833,160.5 189.5,162.5C 181.141,158.657 173.141,154.324 165.5,149.5 Z"/></g>
<g><path style="opacity:1" fill="#f59d61" d="M 239.5,151.5 C 241.219,150.978 242.552,149.978 243.5,148.5C 246.108,148.4 248.442,149.067 250.5,150.5C 250.5,151.833 250.5,153.167 250.5,154.5C 249.127,154.343 247.793,154.51 246.5,155C 246.833,155.333 247.167,155.667 247.5,156C 243.694,157.66 240.028,159.493 236.5,161.5C 235.778,162.551 234.778,163.218 233.5,163.5C 231.718,164.72 229.718,165.386 227.5,165.5C 227.768,163.901 227.434,162.568 226.5,161.5C 227.952,160.698 229.618,160.198 231.5,160C 230.536,155.934 230.203,151.767 230.5,147.5C 231.825,146.047 232.658,146.381 233,148.5C 234.203,144.89 235.203,141.224 236,137.5C 236.667,140.5 236.667,143.5 236,146.5C 233.954,149.449 234.621,151.782 238,153.5C 238.717,152.956 239.217,152.289 239.5,151.5 Z"/></g>
<g><path style="opacity:1" fill="#f59771" d="M 185.5,153.5 C 185.811,154.478 186.478,155.145 187.5,155.5C 189.5,155.167 191.5,154.833 193.5,154.5C 194.051,156.413 194.218,158.413 194,160.5C 196.144,162.075 198.311,162.408 200.5,161.5C 200.833,161.5 201.167,161.5 201.5,161.5C 200.892,162.8 200.225,164.133 199.5,165.5C 201.161,167.335 202.661,169.335 204,171.5C 206.442,167.377 207.442,167.711 207,172.5C 205.48,174.835 203.98,174.668 202.5,172C 201.207,171.51 199.873,171.343 198.5,171.5C 196.831,170.34 194.997,170.34 193,171.5C 192.055,171.095 191.388,170.428 191,169.5C 189.301,170.406 187.467,170.739 185.5,170.5C 185.615,168.053 186.615,166.053 188.5,164.5C 188.833,163.833 189.167,163.167 189.5,162.5C 187.833,160.5 186.167,158.5 184.5,156.5C 180.392,154.67 180.725,153.67 185.5,153.5 Z"/></g>
<g><path style="opacity:1" fill="#f59771" d="M 176.5,143.5 C 177.64,145.78 178.807,148.114 180,150.5C 181.011,149.663 182.178,149.33 183.5,149.5C 184.429,150.315 185.429,151.148 186.5,152C 185.944,152.383 185.611,152.883 185.5,153.5C 180.725,153.67 180.392,154.67 184.5,156.5C 180.63,155.232 176.963,153.398 173.5,151C 170.883,150.178 168.216,149.678 165.5,149.5C 165.301,147.04 164.635,144.707 163.5,142.5C 162.304,142.846 162.304,143.346 163.5,144C 162.667,144.167 161.833,144.333 161,144.5C 156.155,141.581 156.322,140.581 161.5,141.5C 161.5,140.5 161.5,139.5 161.5,138.5C 166.396,140.446 171.396,142.113 176.5,143.5 Z"/></g>
<g><path style="opacity:0.988" fill="#de8f59" d="M 67.5,155.5 C 69.8333,155.5 72.1667,155.5 74.5,155.5C 74.5,156.833 74.5,158.167 74.5,159.5C 72.1667,159.5 69.8333,159.5 67.5,159.5C 67.5,158.167 67.5,156.833 67.5,155.5 Z"/></g>
<g><path style="opacity:1" fill="#eeb99e" d="M 190.5,119.5 C 193.918,122.439 196.418,126.106 198,130.5C 199.141,139.457 199.808,148.457 200,157.5C 203.038,160.369 205.871,163.369 208.5,166.5C 205.604,165.602 203.271,163.935 201.5,161.5C 201.167,161.5 200.833,161.5 200.5,161.5C 199.828,160.733 198.995,160.066 198,159.5C 197.829,151.656 197.329,143.989 196.5,136.5C 197.089,131.161 195.089,127.494 190.5,125.5C 190.5,123.5 190.5,121.5 190.5,119.5 Z"/></g>
<g><path style="opacity:0.702" fill="#caa286" d="M 130.5,152.5 C 140,152.17 143.167,156.503 140,165.5C 133.202,169.755 128.368,168.088 125.5,160.5C 125.727,156.819 127.393,154.152 130.5,152.5 Z M 132.5,154.5 C 137.824,155.33 139.658,158.33 138,163.5C 133.415,166.732 130.248,165.732 128.5,160.5C 128.866,157.744 130.2,155.744 132.5,154.5 Z"/></g>
<g><path style="opacity:1" fill="#f39a6d" d="M 187.5,130.5 C 188.5,130.5 189.5,130.5 190.5,130.5C 190.211,134.106 190.544,137.606 191.5,141C 191.833,141.167 192.167,141.333 192.5,141.5C 193.167,140.167 193.833,138.833 194.5,137.5C 195.308,139.423 195.808,141.423 196,143.5C 196.497,141.19 196.663,138.857 196.5,136.5C 197.329,143.989 197.829,151.656 198,159.5C 198.995,160.066 199.828,160.733 200.5,161.5C 198.311,162.408 196.144,162.075 194,160.5C 194.218,158.413 194.051,156.413 193.5,154.5C 191.5,154.833 189.5,155.167 187.5,155.5C 186.478,155.145 185.811,154.478 185.5,153.5C 185.611,152.883 185.944,152.383 186.5,152C 185.429,151.148 184.429,150.315 183.5,149.5C 185.5,149.5 187.5,149.5 189.5,149.5C 189.978,142.938 189.311,136.604 187.5,130.5 Z"/></g>
<g><path style="opacity:0.988" fill="#c89f81" d="M 352.5,165.5 C 351.5,165.5 350.5,165.5 349.5,165.5C 331.459,154.134 314.125,155.134 297.5,168.5C 296.662,168.158 296.328,167.492 296.5,166.5C 304.794,159.009 314.627,155.343 326,155.5C 336.398,155.017 345.231,158.35 352.5,165.5 Z"/></g>
<g><path style="opacity:1" fill="#c89d82" d="M 157.5,160.5 C 160.41,161.973 161.077,164.14 159.5,167C 155.075,167.956 153.408,166.123 154.5,161.5C 155.791,161.737 156.791,161.404 157.5,160.5 Z"/></g>
<g><path style="opacity:1" fill="#d3aa8a" d="M 147.5,156.5 C 153.104,158.038 154.604,161.371 152,166.5C 144.797,169.981 141.797,167.648 143,159.5C 144.409,158.219 145.909,157.219 147.5,156.5 Z M 146.5,159.5 C 150.013,160.028 151.013,161.862 149.5,165C 144.289,165.546 143.289,163.713 146.5,159.5 Z"/></g>
<g><path style="opacity:1" fill="#f59a6b" d="M 226.5,161.5 C 227.434,162.568 227.768,163.901 227.5,165.5C 229.718,165.386 231.718,164.72 233.5,163.5C 234.398,165.627 236.064,166.794 238.5,167C 235.017,169.684 231.184,170.184 227,168.5C 226.506,170.134 226.34,171.801 226.5,173.5C 225.127,173.343 223.793,173.51 222.5,174C 221.897,176.071 220.564,177.238 218.5,177.5C 215.712,177.923 213.712,176.923 212.5,174.5C 215.167,173.833 217.833,173.167 220.5,172.5C 219.37,171.378 218.703,170.044 218.5,168.5C 221.39,166.342 224.057,164.009 226.5,161.5 Z"/></g>
<g><path style="opacity:0.824" fill="#cfa587" d="M 296.5,166.5 C 296.328,167.492 296.662,168.158 297.5,168.5C 296.48,170.352 294.98,171.685 293,172.5C 283.926,171.044 274.926,169.377 266,167.5C 265.312,168.332 265.479,168.998 266.5,169.5C 274.216,173.02 281.549,177.02 288.5,181.5C 287.586,184.728 287.253,188.061 287.5,191.5C 286.834,188.642 286.167,185.642 285.5,182.5C 273.802,176.318 262.135,170.152 250.5,164C 264.059,165.08 277.559,166.913 291,169.5C 293.192,169.137 295.026,168.137 296.5,166.5 Z"/></g>
<g><path style="opacity:0.875" fill="#f6cfb1" d="M 232.5,172.5 C 234.754,173.415 236.754,174.748 238.5,176.5C 239.441,178.05 240.107,179.716 240.5,181.5C 237.862,178.526 235.195,175.526 232.5,172.5 Z"/></g>
<g><path style="opacity:1" fill="#f19b72" d="M 201.5,161.5 C 203.271,163.935 205.604,165.602 208.5,166.5C 210.457,173.593 213.79,174.26 218.5,168.5C 218.703,170.044 219.37,171.378 220.5,172.5C 217.833,173.167 215.167,173.833 212.5,174.5C 213.712,176.923 215.712,177.923 218.5,177.5C 216.118,182.913 212.452,183.913 207.5,180.5C 204.167,177.833 201.167,174.833 198.5,171.5C 199.873,171.343 201.207,171.51 202.5,172C 203.98,174.668 205.48,174.835 207,172.5C 207.442,167.711 206.442,167.377 204,171.5C 202.661,169.335 201.161,167.335 199.5,165.5C 200.225,164.133 200.892,162.8 201.5,161.5 Z"/></g>
<g><path style="opacity:1" fill="#f2af99" d="M 188.5,164.5 C 186.615,166.053 185.615,168.053 185.5,170.5C 187.467,170.739 189.301,170.406 191,169.5C 191.388,170.428 192.055,171.095 193,171.5C 194.997,170.34 196.831,170.34 198.5,171.5C 191.223,174.444 186.89,179.777 185.5,187.5C 190.844,187.334 196.177,187.501 201.5,188C 205.034,191.266 209.034,193.766 213.5,195.5C 215.703,194.233 218.037,193.233 220.5,192.5C 220.586,193.496 220.252,194.329 219.5,195C 214.738,198.394 210.071,198.227 205.5,194.5C 204.558,194.608 203.725,194.941 203,195.5C 202.618,190.975 200.118,189.309 195.5,190.5C 182.317,191.508 179.983,186.842 188.5,176.5C 187.496,173.501 185.496,172.334 182.5,173C 179.619,175.279 177.619,178.112 176.5,181.5C 175.65,186.737 174.65,192.071 173.5,197.5C 171.35,183.293 176.35,172.293 188.5,164.5 Z"/></g>
<g><path style="opacity:1" fill="#d6ac8c" d="M 124.5,149.5 C 124.232,151.099 124.566,152.432 125.5,153.5C 124.634,157.886 122.301,161.386 118.5,164C 116.099,164.795 113.932,165.962 112,167.5C 109.083,178.879 101.916,182.879 90.5,179.5C 85.5956,188.951 77.9289,192.451 67.5,190C 64.0731,188.569 61.2398,186.402 59,183.5C 53.8647,186.936 48.698,187.269 43.5,184.5C 43.8417,183.662 44.5084,183.328 45.5,183.5C 50.4892,183.96 55.1559,182.96 59.5,180.5C 65.8616,188.789 73.5283,190.289 82.5,185C 85.0574,182.108 87.224,178.941 89,175.5C 96.5369,180.192 102.87,178.859 108,171.5C 109.044,169.285 109.71,166.952 110,164.5C 117.792,162.211 122.625,157.211 124.5,149.5 Z"/></g>
<g><path style="opacity:1" fill="#f49579" d="M 195.5,190.5 C 195.062,190.435 194.728,190.601 194.5,191C 196.886,191.284 197.552,192.284 196.5,194C 201.592,195.67 201.592,196.503 196.5,196.5C 193.154,195.997 189.821,195.33 186.5,194.5C 186,193.5 185.5,192.5 185,191.5C 183.983,193.376 183.149,195.376 182.5,197.5C 180.302,194.555 179.635,191.388 180.5,188C 177.778,186.728 176.444,184.561 176.5,181.5C 177.619,178.112 179.619,175.279 182.5,173C 185.496,172.334 187.496,173.501 188.5,176.5C 179.983,186.842 182.317,191.508 195.5,190.5 Z"/></g>
<g><path style="opacity:0.988" fill="#efbba2" d="M 226.5,173.5 C 223.335,177.498 219.668,180.998 215.5,184C 211.984,184.741 209.317,183.575 207.5,180.5C 212.452,183.913 216.118,182.913 218.5,177.5C 220.564,177.238 221.897,176.071 222.5,174C 223.793,173.51 225.127,173.343 226.5,173.5 Z"/></g>
<g><path style="opacity:1" fill="#e4925c" d="M 322.5,179.5 C 324.5,179.5 326.5,179.5 328.5,179.5C 328.647,184.214 328.314,188.881 327.5,193.5C 326.167,193.5 324.833,193.5 323.5,193.5C 322.771,188.87 322.437,184.203 322.5,179.5 Z"/></g>
<g><path style="opacity:1" fill="#806758" d="M 349.5,165.5 C 350.5,165.5 351.5,165.5 352.5,165.5C 362.048,173.478 365.382,183.478 362.5,195.5C 361.566,194.432 361.232,193.099 361.5,191.5C 361.772,180.718 357.772,172.052 349.5,165.5 Z"/></g>
<g><path style="opacity:0.41" fill="#fed5c1" d="M 241.5,184.5 C 242.434,185.568 242.768,186.901 242.5,188.5C 236.974,188.179 231.64,188.512 226.5,189.5C 225.833,189.5 225.167,189.5 224.5,189.5C 224.611,188.883 224.944,188.383 225.5,188C 230.823,187.501 236.156,187.334 241.5,187.5C 241.5,186.5 241.5,185.5 241.5,184.5 Z"/></g>
<g><path style="opacity:1" fill="#f69a67" d="M 246.5,191.5 C 245.5,191.5 244.5,191.5 243.5,191.5C 243.433,189.599 243.767,187.766 244.5,186C 243.722,183.901 242.389,182.401 240.5,181.5C 240.107,179.716 239.441,178.05 238.5,176.5C 236.547,173.072 237.214,170.405 240.5,168.5C 241.748,169.04 242.915,169.707 244,170.5C 245.358,174.051 246.858,177.551 248.5,181C 247.027,184.336 246.36,187.836 246.5,191.5 Z"/></g>
<g><path style="opacity:1" fill="#f49284" d="M 176.5,181.5 C 176.444,184.561 177.778,186.728 180.5,188C 179.635,191.388 180.302,194.555 182.5,197.5C 183.149,195.376 183.983,193.376 185,191.5C 185.5,192.5 186,193.5 186.5,194.5C 189.821,195.33 193.154,195.997 196.5,196.5C 196.833,197.167 197.167,197.833 197.5,198.5C 193.167,198.5 188.833,198.5 184.5,198.5C 182.683,210.459 181.849,222.793 182,235.5C 178.849,237.052 178.682,238.885 181.5,241C 183.112,241.72 184.612,241.554 186,240.5C 187.105,244.504 185.605,246.504 181.5,246.5C 179.351,245.252 177.351,243.752 175.5,242C 176.308,241.692 176.975,241.192 177.5,240.5C 176.167,239.167 176.167,237.833 177.5,236.5C 176.675,235.614 175.675,235.281 174.5,235.5C 174.825,227.981 174.492,220.648 173.5,213.5C 173.5,212.833 173.167,212.5 172.5,212.5C 169.038,211.518 165.371,211.185 161.5,211.5C 161.5,209.5 161.5,207.5 161.5,205.5C 155.31,205.823 149.31,205.49 143.5,204.5C 153.681,204.827 163.681,204.494 173.5,203.5C 173.5,202.5 173.5,201.5 173.5,200.5C 173.5,199.5 173.5,198.5 173.5,197.5C 174.65,192.071 175.65,186.737 176.5,181.5 Z"/></g>
<g><path style="opacity:1" fill="#f6996b" d="M 243.5,191.5 C 244.5,191.5 245.5,191.5 246.5,191.5C 247.339,192.641 248.006,193.974 248.5,195.5C 249.689,196.429 251.022,196.762 252.5,196.5C 252.5,197.167 252.5,197.833 252.5,198.5C 251.829,201.758 250.996,205.091 250,208.5C 249.667,205.5 249.333,202.5 249,199.5C 248.333,198.167 247.667,198.167 247,199.5C 246.658,197.381 245.825,197.047 244.5,198.5C 244.5,197.833 244.167,197.5 243.5,197.5C 238.9,195.869 233.9,194.869 228.5,194.5C 230.173,192.914 232.173,192.247 234.5,192.5C 234.5,191.5 234.5,190.5 234.5,189.5C 237.752,189.29 240.752,189.956 243.5,191.5 Z"/></g>
<g><path style="opacity:1" fill="#f09f70" d="M 236.5,161.5 C 236.328,162.492 236.662,163.158 237.5,163.5C 242.909,166.574 246.909,170.908 249.5,176.5C 250.628,183.228 251.628,189.895 252.5,196.5C 251.022,196.762 249.689,196.429 248.5,195.5C 248.006,193.974 247.339,192.641 246.5,191.5C 246.36,187.836 247.027,184.336 248.5,181C 246.858,177.551 245.358,174.051 244,170.5C 242.915,169.707 241.748,169.04 240.5,168.5C 237.214,170.405 236.547,173.072 238.5,176.5C 236.754,174.748 234.754,173.415 232.5,172.5C 231.417,172.461 230.417,172.127 229.5,171.5C 228.482,172.193 227.482,172.859 226.5,173.5C 226.34,171.801 226.506,170.134 227,168.5C 231.184,170.184 235.017,169.684 238.5,167C 236.064,166.794 234.398,165.627 233.5,163.5C 234.778,163.218 235.778,162.551 236.5,161.5 Z"/></g>
<g><path style="opacity:1" fill="#897062" d="M 288.5,181.5 C 288.133,190.207 290.467,198.207 295.5,205.5C 294.833,205.833 294.167,206.167 293.5,206.5C 289.575,202.311 287.575,197.311 287.5,191.5C 287.253,188.061 287.586,184.728 288.5,181.5 Z"/></g>
<g><path style="opacity:1" fill="#f09a73" d="M 240.5,181.5 C 242.389,182.401 243.722,183.901 244.5,186C 243.767,187.766 243.433,189.599 243.5,191.5C 240.752,189.956 237.752,189.29 234.5,189.5C 234.5,190.5 234.5,191.5 234.5,192.5C 232.173,192.247 230.173,192.914 228.5,194.5C 233.9,194.869 238.9,195.869 243.5,197.5C 237.282,196.977 231.282,197.644 225.5,199.5C 223.695,197.803 221.361,196.97 218.5,197C 221.338,194.662 224.004,192.162 226.5,189.5C 231.64,188.512 236.974,188.179 242.5,188.5C 242.768,186.901 242.434,185.568 241.5,184.5C 240.89,183.609 240.557,182.609 240.5,181.5 Z"/></g>
<g><path style="opacity:1" fill="#f4986e" d="M 252.5,198.5 C 252.5,206.5 252.5,214.5 252.5,222.5C 251.052,220.49 249.719,218.323 248.5,216C 247.551,215.383 246.718,215.549 246,216.5C 245.817,213.635 245.317,210.969 244.5,208.5C 244.5,205.167 244.5,201.833 244.5,198.5C 245.825,197.047 246.658,197.381 247,199.5C 247.667,198.167 248.333,198.167 249,199.5C 249.333,202.5 249.667,205.5 250,208.5C 250.996,205.091 251.829,201.758 252.5,198.5 Z"/></g>
<g><path style="opacity:0.937" fill="#d59568" d="M 322.5,195.5 C 324.5,195.5 326.5,195.5 328.5,195.5C 328.5,196.5 328.5,197.5 328.5,198.5C 326.5,198.5 324.5,198.5 322.5,198.5C 322.5,197.5 322.5,196.5 322.5,195.5 Z"/></g>
<g><path style="opacity:1" fill="#f39877" d="M 224.5,189.5 C 225.167,189.5 225.833,189.5 226.5,189.5C 224.004,192.162 221.338,194.662 218.5,197C 221.361,196.97 223.695,197.803 225.5,199.5C 223.886,201.075 221.886,201.741 219.5,201.5C 219.5,202.5 219.5,203.5 219.5,204.5C 213.943,204.847 208.61,204.18 203.5,202.5C 201.147,201.66 199.147,200.326 197.5,198.5C 197.167,197.833 196.833,197.167 196.5,196.5C 201.592,196.503 201.592,195.67 196.5,194C 197.552,192.284 196.886,191.284 194.5,191C 194.728,190.601 195.062,190.435 195.5,190.5C 200.118,189.309 202.618,190.975 203,195.5C 203.725,194.941 204.558,194.608 205.5,194.5C 210.071,198.227 214.738,198.394 219.5,195C 220.252,194.329 220.586,193.496 220.5,192.5C 221.262,190.738 222.596,189.738 224.5,189.5 Z"/></g>
<g><path style="opacity:1" fill="#efb7a2" d="M 243.5,197.5 C 243.5,197.833 243.5,198.167 243.5,198.5C 243.167,198.5 242.833,198.5 242.5,198.5C 238.154,198.334 233.821,198.501 229.5,199C 223.024,205.716 215.358,207.716 206.5,205C 205.058,204.623 204.058,203.79 203.5,202.5C 208.61,204.18 213.943,204.847 219.5,204.5C 219.5,203.5 219.5,202.5 219.5,201.5C 221.886,201.741 223.886,201.075 225.5,199.5C 231.282,197.644 237.282,196.977 243.5,197.5 Z"/></g>
<g><path style="opacity:0.411" fill="#fad5d1" d="M 173.5,200.5 C 173.5,201.5 173.5,202.5 173.5,203.5C 159.5,203.5 145.5,203.5 131.5,203.5C 145.568,203.131 159.568,202.131 173.5,200.5 Z"/></g>
<g><path style="opacity:1" fill="#ef969a" d="M 131.5,203.5 C 145.5,203.5 159.5,203.5 173.5,203.5C 163.681,204.494 153.681,204.827 143.5,204.5C 131.796,204.411 122.463,208.411 115.5,216.5C 114.527,215.016 113.193,214.516 111.5,215C 110.281,217.721 108.281,219.554 105.5,220.5C 111.513,210.828 120.18,205.161 131.5,203.5 Z"/></g>
<g><path style="opacity:1" fill="#f38f8c" d="M 143.5,204.5 C 149.31,205.49 155.31,205.823 161.5,205.5C 161.5,207.5 161.5,209.5 161.5,211.5C 165.371,211.185 169.038,211.518 172.5,212.5C 158.829,212.333 145.163,212.5 131.5,213C 130.944,213.383 130.611,213.883 130.5,214.5C 126.676,214.21 123.342,215.21 120.5,217.5C 118.784,217.371 117.117,217.038 115.5,216.5C 122.463,208.411 131.796,204.411 143.5,204.5 Z"/></g>
<g><path style="opacity:0.96" fill="#efbea4" d="M 249.5,176.5 C 252.674,180.887 254.174,185.887 254,191.5C 254.5,201.828 254.666,212.161 254.5,222.5C 263.019,221.588 271.019,222.921 278.5,226.5C 276.5,226.5 274.5,226.5 272.5,226.5C 271.319,224.933 269.653,224.099 267.5,224C 262.316,223.826 257.316,223.326 252.5,222.5C 252.5,214.5 252.5,206.5 252.5,198.5C 252.5,197.833 252.5,197.167 252.5,196.5C 251.628,189.895 250.628,183.228 249.5,176.5 Z"/></g>
<g><path style="opacity:0.613" fill="#f8bbb9" d="M 172.5,212.5 C 173.167,212.5 173.5,212.833 173.5,213.5C 173.167,213.5 172.833,213.5 172.5,213.5C 158.464,213.219 144.464,213.552 130.5,214.5C 130.611,213.883 130.944,213.383 131.5,213C 145.163,212.5 158.829,212.333 172.5,212.5 Z"/></g>
<g><path style="opacity:0.005" fill="#fffdfd" d="M 172.5,213.5 C 172.833,213.5 173.167,213.5 173.5,213.5C 173.83,219.868 173.496,226.202 172.5,232.5C 171.893,232.376 171.56,232.043 171.5,231.5C 172.49,225.69 172.823,219.69 172.5,213.5 Z"/></g>
<g><path style="opacity:0.941" fill="#c59e81" d="M 361.5,191.5 C 361.232,193.099 361.566,194.432 362.5,195.5C 359.52,206.65 352.52,214.15 341.5,218C 322.799,224.472 306.799,220.639 293.5,206.5C 294.167,206.167 294.833,205.833 295.5,205.5C 313.208,221.188 331.874,222.354 351.5,209C 356.551,204.054 359.885,198.221 361.5,191.5 Z"/></g>
<g><path style="opacity:1" fill="#f2c8be" d="M 203.5,226.5 C 203.795,224.265 203.461,222.265 202.5,220.5C 200.034,219.366 197.367,219.199 194.5,220C 193.594,221.699 193.261,223.533 193.5,225.5C 191.141,220.384 192.807,217.718 198.5,217.5C 200.429,217.54 202.262,217.873 204,218.5C 204.801,221.367 204.634,224.034 203.5,226.5 Z"/></g>
<g><path style="opacity:0.004" fill="#fef5f4" d="M 223.5,218.5 C 223.5,236.167 223.5,253.833 223.5,271.5C 218.944,273.442 213.944,274.108 208.5,273.5C 207.662,273.158 207.328,272.492 207.5,271.5C 207.5,270.167 207.5,268.833 207.5,267.5C 208.451,268.919 208.784,270.585 208.5,272.5C 213.167,272.5 217.833,272.5 222.5,272.5C 222.17,254.326 222.503,236.326 223.5,218.5 Z"/></g>
<g><path style="opacity:0.007" fill="#fefbf9" d="M 242.5,198.5 C 242.833,198.5 243.167,198.5 243.5,198.5C 243.5,223.5 243.5,248.5 243.5,273.5C 240.167,273.5 236.833,273.5 233.5,273.5C 233.5,255.167 233.5,236.833 233.5,218.5C 234.497,236.326 234.83,254.326 234.5,272.5C 237.167,272.5 239.833,272.5 242.5,272.5C 242.5,247.833 242.5,223.167 242.5,198.5 Z"/></g>
<g><path style="opacity:1" fill="#f29382" d="M 202.5,220.5 C 202.5,225.167 202.5,229.833 202.5,234.5C 202.209,238.579 200.709,242.246 198,245.5C 197.272,242.77 197.438,240.103 198.5,237.5C 197.098,233.289 196.264,228.955 196,224.5C 195.667,229.5 195.333,234.5 195,239.5C 194.768,240.737 194.268,241.737 193.5,242.5C 193.5,237.833 193.5,233.167 193.5,228.5C 193.5,227.5 193.5,226.5 193.5,225.5C 193.261,223.533 193.594,221.699 194.5,220C 197.367,219.199 200.034,219.366 202.5,220.5 Z"/></g>
<g><path style="opacity:0.951" fill="#e59d8c" d="M 233.5,218.5 C 233.5,236.833 233.5,255.167 233.5,273.5C 231.204,273.196 230.871,272.196 232.5,270.5C 232.5,260.5 232.5,250.5 232.5,240.5C 232.5,233.5 232.5,226.5 232.5,219.5C 229.833,219.5 227.167,219.5 224.5,219.5C 224.5,225.833 224.5,232.167 224.5,238.5C 224.5,249.5 224.5,260.5 224.5,271.5C 224.167,271.5 223.833,271.5 223.5,271.5C 223.5,253.833 223.5,236.167 223.5,218.5C 226.833,217.167 230.167,217.167 233.5,218.5 Z"/></g>
<g><path style="opacity:1" fill="#f4996d" d="M 272.5,226.5 C 274.5,226.5 276.5,226.5 278.5,226.5C 279.174,228.024 280.174,229.358 281.5,230.5C 281.291,231.086 280.957,231.586 280.5,232C 282.483,233.114 284.15,234.614 285.5,236.5C 284.173,238.311 283.173,240.311 282.5,242.5C 281.534,238.862 279.201,237.195 275.5,237.5C 274.972,236.279 274.305,235.113 273.5,234C 268.406,231.704 263.239,229.538 258,227.5C 256.173,228.184 254.673,227.517 253.5,225.5C 255.5,225.167 257.5,224.833 259.5,224.5C 263.913,224.751 268.246,225.418 272.5,226.5 Z"/></g>
<g><path style="opacity:1" fill="#f1aab2" d="M 130.5,214.5 C 121.672,217.989 115.005,223.989 110.5,232.5C 110.5,230.167 110.5,227.833 110.5,225.5C 111.5,225.5 112.5,225.5 113.5,225.5C 113.5,223.833 113.5,222.167 113.5,220.5C 115.057,219.132 117.391,218.132 120.5,217.5C 123.342,215.21 126.676,214.21 130.5,214.5 Z"/></g>
<g><path style="opacity:1" fill="#f29975" d="M 244.5,208.5 C 245.317,210.969 245.817,213.635 246,216.5C 246.718,215.549 247.551,215.383 248.5,216C 249.719,218.323 251.052,220.49 252.5,222.5C 257.316,223.326 262.316,223.826 267.5,224C 269.653,224.099 271.319,224.933 272.5,226.5C 268.246,225.418 263.913,224.751 259.5,224.5C 257.5,224.833 255.5,225.167 253.5,225.5C 254.673,227.517 256.173,228.184 258,227.5C 263.239,229.538 268.406,231.704 273.5,234C 274.305,235.113 274.972,236.279 275.5,237.5C 272.422,235.631 269.089,234.298 265.5,233.5C 261.366,232.515 257.032,232.182 252.5,232.5C 252.5,239.833 252.5,247.167 252.5,254.5C 251.834,249.651 251.167,244.651 250.5,239.5C 249.814,236.277 248.814,233.277 247.5,230.5C 247.357,227.903 246.523,225.569 245,223.5C 244.501,218.511 244.334,213.511 244.5,208.5 Z"/></g>
<g><path style="opacity:0.004" fill="#fefaf9" d="M 193.5,228.5 C 193.5,233.167 193.5,237.833 193.5,242.5C 191.821,242.715 190.821,242.048 190.5,240.5C 191.117,240.611 191.617,240.944 192,241.5C 192.175,236.981 192.675,232.647 193.5,228.5 Z"/></g>
<g><path style="opacity:1" fill="#f4947a" d="M 232.5,240.5 C 231.735,245.039 230.902,249.706 230,254.5C 227.85,249.128 226.017,243.795 224.5,238.5C 224.5,232.167 224.5,225.833 224.5,219.5C 227.167,219.5 229.833,219.5 232.5,219.5C 232.5,226.5 232.5,233.5 232.5,240.5 Z"/></g>
<g><path style="opacity:1" fill="#f38d91" d="M 145.5,225.5 C 144.522,225.811 143.855,226.478 143.5,227.5C 146.456,229.096 149.456,230.596 152.5,232C 153.748,233.4 154.748,234.9 155.5,236.5C 154.5,236.5 153.5,236.5 152.5,236.5C 152.167,236.5 151.833,236.5 151.5,236.5C 150.749,235.427 149.749,235.26 148.5,236C 146.837,238.654 145.504,241.487 144.5,244.5C 143.817,244.137 143.15,243.804 142.5,243.5C 140.994,237.269 140.327,230.936 140.5,224.5C 142.415,224.216 144.081,224.549 145.5,225.5 Z"/></g>
<g><path style="opacity:1" fill="#f48e8d" d="M 145.5,225.5 C 150.365,226.346 155.032,228.013 159.5,230.5C 160.736,229.754 162.07,229.421 163.5,229.5C 165.603,232.305 168.437,233.972 172,234.5C 173.128,236.345 173.628,238.345 173.5,240.5C 167.352,239.755 161.352,238.422 155.5,236.5C 154.748,234.9 153.748,233.4 152.5,232C 149.456,230.596 146.456,229.096 143.5,227.5C 143.855,226.478 144.522,225.811 145.5,225.5 Z"/></g>
<g><path style="opacity:1" fill="#f4899b" d="M 115.5,216.5 C 117.117,217.038 118.784,217.371 120.5,217.5C 117.391,218.132 115.057,219.132 113.5,220.5C 113.5,222.167 113.5,223.833 113.5,225.5C 112.5,225.5 111.5,225.5 110.5,225.5C 110.5,227.833 110.5,230.167 110.5,232.5C 110.5,233.167 110.5,233.833 110.5,234.5C 109.833,234.833 109.167,235.167 108.5,235.5C 106.851,241.505 105.517,247.838 104.5,254.5C 99.5946,248.436 99.2613,242.102 103.5,235.5C 102.276,233.161 102.276,230.828 103.5,228.5C 104.192,229.025 104.692,229.692 105,230.5C 105.167,229.833 105.333,229.167 105.5,228.5C 104.763,225.905 104.763,223.238 105.5,220.5C 108.281,219.554 110.281,217.721 111.5,215C 113.193,214.516 114.527,215.016 115.5,216.5 Z"/></g>
<g><path style="opacity:1" fill="#f69479" d="M 247.5,230.5 C 248.814,233.277 249.814,236.277 250.5,239.5C 251.167,244.651 251.834,249.651 252.5,254.5C 252.5,260.167 252.5,265.833 252.5,271.5C 251.673,266.349 251.173,261.016 251,255.5C 250.222,260.763 249.055,265.763 247.5,270.5C 247.138,262.272 247.138,254.105 247.5,246C 247.4,243.698 246.733,241.698 245.5,240C 246.432,236.915 247.099,233.748 247.5,230.5 Z"/></g>
<g><path style="opacity:1" fill="#ee9e9b" d="M 173.5,213.5 C 174.492,220.648 174.825,227.981 174.5,235.5C 175.675,235.281 176.675,235.614 177.5,236.5C 176.167,237.833 176.167,239.167 177.5,240.5C 176.975,241.192 176.308,241.692 175.5,242C 177.351,243.752 179.351,245.252 181.5,246.5C 181.5,246.833 181.5,247.167 181.5,247.5C 171.738,243.981 162.072,240.314 152.5,236.5C 153.5,236.5 154.5,236.5 155.5,236.5C 161.352,238.422 167.352,239.755 173.5,240.5C 173.628,238.345 173.128,236.345 172,234.5C 168.437,233.972 165.603,232.305 163.5,229.5C 166.267,229.858 168.933,230.525 171.5,231.5C 171.56,232.043 171.893,232.376 172.5,232.5C 173.496,226.202 173.83,219.868 173.5,213.5 Z"/></g>
<g><path style="opacity:1" fill="#eda5ac" d="M 163.5,229.5 C 162.07,229.421 160.736,229.754 159.5,230.5C 155.032,228.013 150.365,226.346 145.5,225.5C 144.081,224.549 142.415,224.216 140.5,224.5C 140.327,230.936 140.994,237.269 142.5,243.5C 143.265,246.096 143.599,248.763 143.5,251.5C 139.593,255.771 139.593,260.105 143.5,264.5C 143.982,267.831 142.982,270.497 140.5,272.5C 140.894,271.033 141.227,269.533 141.5,268C 140.207,264.75 139.207,261.416 138.5,258C 139.207,254.584 140.207,251.25 141.5,248C 139.478,241.625 138.145,235.125 137.5,228.5C 138.35,223.15 141.35,221.317 146.5,223C 152.454,224.725 158.121,226.892 163.5,229.5 Z"/></g>
<g><path style="opacity:1" fill="#f59281" d="M 224.5,238.5 C 226.017,243.795 227.85,249.128 230,254.5C 230.902,249.706 231.735,245.039 232.5,240.5C 232.5,250.5 232.5,260.5 232.5,270.5C 230.058,270.354 229.391,271.187 230.5,273C 229.5,273.167 228.5,273.333 227.5,273.5C 225.97,273.36 224.97,272.693 224.5,271.5C 224.5,260.5 224.5,249.5 224.5,238.5 Z"/></g>
<g><path style="opacity:1" fill="#ee977c" d="M 243.5,197.5 C 244.167,197.5 244.5,197.833 244.5,198.5C 244.5,201.833 244.5,205.167 244.5,208.5C 244.334,213.511 244.501,218.511 245,223.5C 246.523,225.569 247.357,227.903 247.5,230.5C 247.099,233.748 246.432,236.915 245.5,240C 246.733,241.698 247.4,243.698 247.5,246C 247.138,254.105 247.138,262.272 247.5,270.5C 245.715,265.933 244.882,260.933 245,255.5C 244.828,261.681 244.328,267.681 243.5,273.5C 243.5,248.5 243.5,223.5 243.5,198.5C 243.5,198.167 243.5,197.833 243.5,197.5 Z"/></g>
<g><path style="opacity:1" fill="#f4996c" d="M 292.5,250.5 C 292.847,255.079 292.18,259.412 290.5,263.5C 289.609,262.89 288.609,262.557 287.5,262.5C 286.127,259.868 285.127,257.034 284.5,254C 284.975,252.237 285.642,250.57 286.5,249C 285.213,245.875 285.213,242.709 286.5,239.5C 287.167,239.833 287.833,240.167 288.5,240.5C 289.333,243.5 290.167,246.5 291,249.5C 291.383,250.056 291.883,250.389 292.5,250.5 Z"/></g>
<g><path style="opacity:1" fill="#f3a8a0" d="M 184.5,198.5 C 184.333,211.171 184.5,223.838 185,236.5C 186.774,237.965 188.608,239.298 190.5,240.5C 190.821,242.048 191.821,242.715 193.5,242.5C 193.762,243.978 193.429,245.311 192.5,246.5C 190.994,247.23 189.66,247.563 188.5,247.5C 189.246,248.736 189.579,250.07 189.5,251.5C 187.29,249.299 184.624,247.966 181.5,247.5C 181.5,247.167 181.5,246.833 181.5,246.5C 185.605,246.504 187.105,244.504 186,240.5C 184.612,241.554 183.112,241.72 181.5,241C 178.682,238.885 178.849,237.052 182,235.5C 181.849,222.793 182.683,210.459 184.5,198.5 Z"/></g>
<g><path style="opacity:1" fill="#edb4b0" d="M 181.5,247.5 C 184.624,247.966 187.29,249.299 189.5,251.5C 189.81,253.144 190.81,254.144 192.5,254.5C 193.694,257.451 194.694,260.451 195.5,263.5C 191.922,257.253 187.256,251.92 181.5,247.5 Z"/></g>
<g><path style="opacity:1" fill="#f49086" d="M 202.5,234.5 C 202.5,241.5 202.5,248.5 202.5,255.5C 201.5,255.5 200.5,255.5 199.5,255.5C 199.853,253.365 199.02,252.032 197,251.5C 195.357,252.315 193.857,253.315 192.5,254.5C 190.81,254.144 189.81,253.144 189.5,251.5C 189.579,250.07 189.246,248.736 188.5,247.5C 189.66,247.563 190.994,247.23 192.5,246.5C 193.429,245.311 193.762,243.978 193.5,242.5C 194.268,241.737 194.768,240.737 195,239.5C 195.333,234.5 195.667,229.5 196,224.5C 196.264,228.955 197.098,233.289 198.5,237.5C 197.438,240.103 197.272,242.77 198,245.5C 200.709,242.246 202.209,238.579 202.5,234.5 Z"/></g>
<g><path style="opacity:1" fill="#f08ea4" d="M 105.5,220.5 C 104.763,223.238 104.763,225.905 105.5,228.5C 105.333,229.167 105.167,229.833 105,230.5C 104.692,229.692 104.192,229.025 103.5,228.5C 102.276,230.828 102.276,233.161 103.5,235.5C 99.2613,242.102 99.5946,248.436 104.5,254.5C 105.517,247.838 106.851,241.505 108.5,235.5C 107.971,237.783 107.637,240.117 107.5,242.5C 108.339,247.508 108.839,252.508 109,257.5C 108.333,258.167 107.667,258.833 107,259.5C 106.124,257.365 104.624,256.031 102.5,255.5C 101.819,253.842 100.985,252.175 100,250.5C 99.5006,244.843 99.3339,239.176 99.5,233.5C 100.18,228.478 102.18,224.144 105.5,220.5 Z"/></g>
<g><path style="opacity:1" fill="#f28f98" d="M 151.5,236.5 C 150.903,236.735 150.57,237.235 150.5,238C 151.274,240.154 151.941,242.321 152.5,244.5C 152.5,246.167 152.5,247.833 152.5,249.5C 151.07,249.421 149.736,249.754 148.5,250.5C 147.83,252.291 147.163,253.958 146.5,255.5C 145.978,253.781 144.978,252.448 143.5,251.5C 143.599,248.763 143.265,246.096 142.5,243.5C 143.15,243.804 143.817,244.137 144.5,244.5C 145.504,241.487 146.837,238.654 148.5,236C 149.749,235.26 150.749,235.427 151.5,236.5 Z"/></g>
<g><path style="opacity:0.475" fill="#fad7ca" d="M 281.5,246.5 C 282.117,246.611 282.617,246.944 283,247.5C 283.667,251.5 283.667,255.5 283,259.5C 282.617,260.056 282.117,260.389 281.5,260.5C 282.762,255.819 282.762,251.152 281.5,246.5 Z"/></g>
<g><path style="opacity:1" fill="#f2bbc3" d="M 99.5,233.5 C 99.3339,239.176 99.5006,244.843 100,250.5C 100.985,252.175 101.819,253.842 102.5,255.5C 103.928,259.35 105.594,263.017 107.5,266.5C 109.179,268 110.512,269.833 111.5,272C 115.105,271.666 117.439,273.166 118.5,276.5C 120.045,277.452 121.712,277.785 123.5,277.5C 125.736,279.906 128.403,281.572 131.5,282.5C 114.168,279.673 103.335,269.673 99,252.5C 98.7037,249.294 98.2037,246.128 97.5,243C 98.0504,239.676 98.7171,236.509 99.5,233.5 Z"/></g>
<g><path style="opacity:0.965" fill="#f0c1a7" d="M 290.5,239.5 C 295.833,248.5 295.833,257.5 290.5,266.5C 290.5,265.5 290.5,264.5 290.5,263.5C 292.18,259.412 292.847,255.079 292.5,250.5C 291.833,246.833 291.167,243.167 290.5,239.5 Z"/></g>
<g><path style="opacity:1" fill="#f58998" d="M 143.5,251.5 C 144.978,252.448 145.978,253.781 146.5,255.5C 149.116,257.755 149.116,260.088 146.5,262.5C 147.499,266.361 148.665,266.361 150,262.5C 150.494,264.134 150.66,265.801 150.5,267.5C 148.025,268.687 147.025,270.687 147.5,273.5C 146.5,273.5 145.5,273.5 144.5,273.5C 144.81,270.287 144.477,267.287 143.5,264.5C 139.593,260.105 139.593,255.771 143.5,251.5 Z"/></g>
<g><path style="opacity:1" fill="#f09e7d" d="M 278.5,226.5 C 283.909,229.574 287.909,233.908 290.5,239.5C 291.167,243.167 291.833,246.833 292.5,250.5C 291.883,250.389 291.383,250.056 291,249.5C 290.167,246.5 289.333,243.5 288.5,240.5C 287.833,240.167 287.167,239.833 286.5,239.5C 285.213,242.709 285.213,245.875 286.5,249C 285.642,250.57 284.975,252.237 284.5,254C 285.127,257.034 286.127,259.868 287.5,262.5C 287.44,263.043 287.107,263.376 286.5,263.5C 285.833,262.5 285.167,261.5 284.5,260.5C 283.85,262.184 282.85,263.517 281.5,264.5C 281.5,263.167 281.5,261.833 281.5,260.5C 282.117,260.389 282.617,260.056 283,259.5C 283.667,255.5 283.667,251.5 283,247.5C 282.617,246.944 282.117,246.611 281.5,246.5C 280.315,242.977 278.315,239.977 275.5,237.5C 279.201,237.195 281.534,238.862 282.5,242.5C 283.173,240.311 284.173,238.311 285.5,236.5C 284.15,234.614 282.483,233.114 280.5,232C 280.957,231.586 281.291,231.086 281.5,230.5C 280.174,229.358 279.174,228.024 278.5,226.5 Z"/></g>
<g><path style="opacity:0.975" fill="#efbdae" d="M 265.5,233.5 C 261.833,233.5 258.167,233.5 254.5,233.5C 254.5,246.5 254.5,259.5 254.5,272.5C 261.461,273.122 268.127,272.122 274.5,269.5C 273.9,270.9 272.9,271.9 271.5,272.5C 269.621,273.341 267.621,273.675 265.5,273.5C 260.706,274.097 256.373,273.43 252.5,271.5C 252.5,265.833 252.5,260.167 252.5,254.5C 252.5,247.167 252.5,239.833 252.5,232.5C 257.032,232.182 261.366,232.515 265.5,233.5 Z"/></g>
<g><path style="opacity:1" fill="#f29c7c" d="M 287.5,262.5 C 288.609,262.557 289.609,262.89 290.5,263.5C 290.5,264.5 290.5,265.5 290.5,266.5C 288.628,271.043 285.628,274.71 281.5,277.5C 280.833,277.5 280.167,277.5 279.5,277.5C 279.821,275.952 280.821,275.285 282.5,275.5C 282.896,272.518 282.229,269.851 280.5,267.5C 277.792,269.31 276.958,271.643 278,274.5C 275.993,273.331 273.827,272.665 271.5,272.5C 272.9,271.9 273.9,270.9 274.5,269.5C 277.093,268.246 279.427,266.58 281.5,264.5C 282.85,263.517 283.85,262.184 284.5,260.5C 285.167,261.5 285.833,262.5 286.5,263.5C 287.107,263.376 287.44,263.043 287.5,262.5 Z"/></g>
<g><path style="opacity:1" fill="#f499ab" d="M 110.5,234.5 C 107.885,245.051 109.885,254.717 116.5,263.5C 116.727,265.997 118.06,267.664 120.5,268.5C 119.667,268.833 118.833,269.167 118,269.5C 115.668,267.684 113.168,266.017 110.5,264.5C 109.735,265.612 108.735,266.279 107.5,266.5C 105.594,263.017 103.928,259.35 102.5,255.5C 104.624,256.031 106.124,257.365 107,259.5C 107.667,258.833 108.333,258.167 109,257.5C 108.839,252.508 108.339,247.508 107.5,242.5C 107.637,240.117 107.971,237.783 108.5,235.5C 109.167,235.167 109.833,234.833 110.5,234.5 Z"/></g>
<g><path style="opacity:0.914" fill="#f2c4b0" d="M 281.5,260.5 C 281.5,261.833 281.5,263.167 281.5,264.5C 279.427,266.58 277.093,268.246 274.5,269.5C 277.274,266.74 279.608,263.74 281.5,260.5 Z"/></g>
<g><path style="opacity:1" fill="#f39892" d="M 202.5,220.5 C 203.461,222.265 203.795,224.265 203.5,226.5C 204.061,235.705 204.061,244.872 203.5,254C 205.144,258.429 206.477,262.929 207.5,267.5C 207.5,268.833 207.5,270.167 207.5,271.5C 207.167,271.5 206.833,271.5 206.5,271.5C 206.372,269.91 205.705,268.577 204.5,267.5C 203.167,268.5 201.833,269.5 200.5,270.5C 199.479,269.099 198.479,267.765 197.5,266.5C 197.715,264.821 197.048,263.821 195.5,263.5C 194.694,260.451 193.694,257.451 192.5,254.5C 193.857,253.315 195.357,252.315 197,251.5C 199.02,252.032 199.853,253.365 199.5,255.5C 200.5,255.5 201.5,255.5 202.5,255.5C 202.5,248.5 202.5,241.5 202.5,234.5C 202.5,229.833 202.5,225.167 202.5,220.5 Z"/></g>
<g><path style="opacity:0.413" fill="#f8cbce" d="M 151.5,262.5 C 154.043,265.462 154.71,268.796 153.5,272.5C 168.17,272.667 182.837,272.5 197.5,272C 196.287,269.313 195.62,266.48 195.5,263.5C 197.048,263.821 197.715,264.821 197.5,266.5C 198.417,269.005 198.417,271.338 197.5,273.5C 182.5,273.5 167.5,273.5 152.5,273.5C 152.448,269.802 152.114,266.135 151.5,262.5 Z"/></g>
<g><path style="opacity:1" fill="#eb95a1" d="M 152.5,244.5 C 153.249,245.531 153.915,246.698 154.5,248C 151.182,252.43 150.182,257.264 151.5,262.5C 152.114,266.135 152.448,269.802 152.5,273.5C 167.5,273.5 182.5,273.5 197.5,273.5C 195.735,274.461 193.735,274.795 191.5,274.5C 180.833,274.5 170.167,274.5 159.5,274.5C 156.833,274.5 154.167,274.5 151.5,274.5C 151.802,271.941 151.468,269.607 150.5,267.5C 150.66,265.801 150.494,264.134 150,262.5C 148.665,266.361 147.499,266.361 146.5,262.5C 149.116,260.088 149.116,257.755 146.5,255.5C 147.163,253.958 147.83,252.291 148.5,250.5C 149.736,249.754 151.07,249.421 152.5,249.5C 152.5,247.833 152.5,246.167 152.5,244.5 Z"/></g>
<g><path style="opacity:1" fill="#f58b94" d="M 159.5,274.5 C 170.167,274.5 180.833,274.5 191.5,274.5C 192.048,275.688 192.381,276.855 192.5,278C 186.771,279.568 181.104,280.735 175.5,281.5C 169.824,281.666 164.157,281.499 158.5,281C 160.075,278.856 160.408,276.689 159.5,274.5 Z"/></g>
<g><path style="opacity:1" fill="#f48d8e" d="M 197.5,266.5 C 198.479,267.765 199.479,269.099 200.5,270.5C 201.833,269.5 203.167,268.5 204.5,267.5C 205.705,268.577 206.372,269.91 206.5,271.5C 205.286,273.149 203.953,274.815 202.5,276.5C 210.275,278.226 209.942,279.392 201.5,280C 209.011,280.171 216.345,280.671 223.5,281.5C 214.5,281.5 205.5,281.5 196.5,281.5C 189.5,281.5 182.5,281.5 175.5,281.5C 181.104,280.735 186.771,279.568 192.5,278C 192.381,276.855 192.048,275.688 191.5,274.5C 193.735,274.795 195.735,274.461 197.5,273.5C 198.417,271.338 198.417,269.005 197.5,266.5 Z"/></g>
<g><path style="opacity:1" fill="#f5a1af" d="M 116.5,263.5 C 123.267,269.646 131.267,272.646 140.5,272.5C 139.486,273.765 137.986,274.431 136,274.5C 131.172,273.202 126.339,272.036 121.5,271C 117.932,274.035 118.599,276.202 123.5,277.5C 121.712,277.785 120.045,277.452 118.5,276.5C 117.439,273.166 115.105,271.666 111.5,272C 110.512,269.833 109.179,268 107.5,266.5C 108.735,266.279 109.735,265.612 110.5,264.5C 113.168,266.017 115.668,267.684 118,269.5C 118.833,269.167 119.667,268.833 120.5,268.5C 118.06,267.664 116.727,265.997 116.5,263.5 Z"/></g>
<g><path style="opacity:1" fill="#f38a9e" d="M 143.5,264.5 C 144.477,267.287 144.81,270.287 144.5,273.5C 145.5,273.5 146.5,273.5 147.5,273.5C 147.025,270.687 148.025,268.687 150.5,267.5C 151.468,269.607 151.802,271.941 151.5,274.5C 154.167,274.5 156.833,274.5 159.5,274.5C 160.408,276.689 160.075,278.856 158.5,281C 164.157,281.499 169.824,281.666 175.5,281.5C 182.5,281.5 189.5,281.5 196.5,281.5C 175.006,282.497 153.34,282.831 131.5,282.5C 128.403,281.572 125.736,279.906 123.5,277.5C 118.599,276.202 117.932,274.035 121.5,271C 126.339,272.036 131.172,273.202 136,274.5C 137.986,274.431 139.486,273.765 140.5,272.5C 142.982,270.497 143.982,267.831 143.5,264.5 Z"/></g>
<g><path style="opacity:1" fill="#f49e91" d="M 247.5,270.5 C 249.055,265.763 250.222,260.763 251,255.5C 251.173,261.016 251.673,266.349 252.5,271.5C 256.373,273.43 260.706,274.097 265.5,273.5C 265.389,274.117 265.056,274.617 264.5,275C 261.774,275.182 259.107,275.682 256.5,276.5C 259.103,279.916 262.603,281.249 267,280.5C 271.376,280.189 275.542,279.189 279.5,277.5C 280.167,277.5 280.833,277.5 281.5,277.5C 278.176,280.564 274.176,282.397 269.5,283C 223.332,283.832 177.332,283.665 131.5,282.5C 153.34,282.831 175.006,282.497 196.5,281.5C 205.5,281.5 214.5,281.5 223.5,281.5C 225.685,281.296 227.685,280.63 229.5,279.5C 235.382,279.471 241.382,279.138 247.5,278.5C 244.658,277.996 243.325,276.329 243.5,273.5C 244.328,267.681 244.828,261.681 245,255.5C 244.882,260.933 245.715,265.933 247.5,270.5 Z"/></g>
<g><path style="opacity:1" fill="#f58e8a" d="M 206.5,271.5 C 206.833,271.5 207.167,271.5 207.5,271.5C 207.328,272.492 207.662,273.158 208.5,273.5C 210.265,274.461 212.265,274.795 214.5,274.5C 214.5,275.5 214.5,276.5 214.5,277.5C 218.355,278.514 222.188,278.514 226,277.5C 227.681,277.608 228.848,278.275 229.5,279.5C 227.685,280.63 225.685,281.296 223.5,281.5C 216.345,280.671 209.011,280.171 201.5,280C 209.942,279.392 210.275,278.226 202.5,276.5C 203.953,274.815 205.286,273.149 206.5,271.5 Z"/></g>
<g><path style="opacity:1" fill="#f39186" d="M 232.5,270.5 C 230.871,272.196 231.204,273.196 233.5,273.5C 236.833,273.5 240.167,273.5 243.5,273.5C 243.325,276.329 244.658,277.996 247.5,278.5C 241.382,279.138 235.382,279.471 229.5,279.5C 228.848,278.275 227.681,277.608 226,277.5C 222.188,278.514 218.355,278.514 214.5,277.5C 214.5,276.5 214.5,275.5 214.5,274.5C 212.265,274.795 210.265,274.461 208.5,273.5C 213.944,274.108 218.944,273.442 223.5,271.5C 223.833,271.5 224.167,271.5 224.5,271.5C 224.97,272.693 225.97,273.36 227.5,273.5C 228.5,273.333 229.5,273.167 230.5,273C 229.391,271.187 230.058,270.354 232.5,270.5 Z"/></g>
<g><path style="opacity:1" fill="#f4947b" d="M 279.5,277.5 C 275.542,279.189 271.376,280.189 267,280.5C 262.603,281.249 259.103,279.916 256.5,276.5C 259.107,275.682 261.774,275.182 264.5,275C 265.056,274.617 265.389,274.117 265.5,273.5C 267.621,273.675 269.621,273.341 271.5,272.5C 273.827,272.665 275.993,273.331 278,274.5C 276.958,271.643 277.792,269.31 280.5,267.5C 282.229,269.851 282.896,272.518 282.5,275.5C 280.821,275.285 279.821,275.952 279.5,277.5 Z"/></g>
<g><path style="opacity:1" fill="#161616" d="M 121.5,314.5 C 125.5,314.5 129.5,314.5 133.5,314.5C 133.5,315.833 133.5,317.167 133.5,318.5C 132.5,318.5 131.5,318.5 130.5,318.5C 130.5,322.5 130.5,326.5 130.5,330.5C 131.5,330.5 132.5,330.5 133.5,330.5C 133.5,331.833 133.5,333.167 133.5,334.5C 129.5,334.5 125.5,334.5 121.5,334.5C 121.5,333.167 121.5,331.833 121.5,330.5C 122.5,330.5 123.5,330.5 124.5,330.5C 124.5,326.5 124.5,322.5 124.5,318.5C 123.5,318.5 122.5,318.5 121.5,318.5C 121.5,317.167 121.5,315.833 121.5,314.5 Z"/></g>
<g><path style="opacity:1" fill="#2a2a2a" d="M 140.5,314.5 C 144.437,314.207 148.27,314.54 152,315.5C 152.798,317.259 152.631,318.926 151.5,320.5C 148.414,318.782 145.414,318.615 142.5,320C 145.948,321.206 149.281,322.706 152.5,324.5C 154.501,328.727 153.501,331.893 149.5,334C 145.5,334.667 141.5,334.667 137.5,334C 135.808,332.599 135.141,330.766 135.5,328.5C 138.443,328.647 141.276,329.313 144,330.5C 145.225,330.138 146.391,329.638 147.5,329C 143.946,327.702 140.446,326.202 137,324.5C 135.581,320.082 136.748,316.749 140.5,314.5 Z"/></g>
<g><path style="opacity:1" fill="#191919" d="M 155.5,314.5 C 160.5,314.5 165.5,314.5 170.5,314.5C 170.5,315.833 170.5,317.167 170.5,318.5C 167.5,318.5 164.5,318.5 161.5,318.5C 161.5,319.5 161.5,320.5 161.5,321.5C 164.5,321.5 167.5,321.5 170.5,321.5C 170.5,322.833 170.5,324.167 170.5,325.5C 167.5,325.5 164.5,325.5 161.5,325.5C 161.5,327.167 161.5,328.833 161.5,330.5C 164.5,330.5 167.5,330.5 170.5,330.5C 170.5,331.833 170.5,333.167 170.5,334.5C 165.5,334.5 160.5,334.5 155.5,334.5C 155.5,327.833 155.5,321.167 155.5,314.5 Z"/></g>
<g><path style="opacity:1" fill="#050505" d="M 174.5,314.5 C 179.167,314.5 183.833,314.5 188.5,314.5C 188.5,315.833 188.5,317.167 188.5,318.5C 185.5,318.5 182.5,318.5 179.5,318.5C 179.5,319.833 179.5,321.167 179.5,322.5C 182.5,322.5 185.5,322.5 188.5,322.5C 188.5,323.833 188.5,325.167 188.5,326.5C 185.5,326.5 182.5,326.5 179.5,326.5C 179.5,329.167 179.5,331.833 179.5,334.5C 177.833,334.5 176.167,334.5 174.5,334.5C 174.5,327.833 174.5,321.167 174.5,314.5 Z"/></g>
<g><path style="opacity:1" fill="#282828" d="M 204.5,314.5 C 215.935,312.44 221.102,317.107 220,328.5C 218.542,330.96 216.709,333.127 214.5,335C 216.305,336.441 218.305,336.608 220.5,335.5C 220.5,336.833 220.5,338.167 220.5,339.5C 217.482,339.665 214.482,339.498 211.5,339C 209.968,338.3 208.968,337.134 208.5,335.5C 201.026,333.225 198.192,328.225 200,320.5C 201.332,318.34 202.832,316.34 204.5,314.5 Z M 209.5,318.5 C 213.637,320.108 215.137,323.108 214,327.5C 209.756,331.312 206.922,330.312 205.5,324.5C 205.67,321.674 207.003,319.674 209.5,318.5 Z"/></g>
<g><path style="opacity:1" fill="#202020" d="M 223.5,314.5 C 225.167,314.5 226.833,314.5 228.5,314.5C 228.334,318.846 228.501,323.179 229,327.5C 230.679,330.699 232.679,331.033 235,328.5C 235.499,323.845 235.666,319.179 235.5,314.5C 237.5,314.5 239.5,314.5 241.5,314.5C 241.666,319.844 241.499,325.177 241,330.5C 239.196,333.817 236.363,335.15 232.5,334.5C 229.139,334.888 226.306,333.888 224,331.5C 223.501,325.843 223.334,320.176 223.5,314.5 Z"/></g>
<g><path style="opacity:1" fill="#1e1e1e" d="M 243.5,314.5 C 247.833,314.5 252.167,314.5 256.5,314.5C 256.5,315.833 256.5,317.167 256.5,318.5C 255.5,318.5 254.5,318.5 253.5,318.5C 253.5,322.5 253.5,326.5 253.5,330.5C 254.5,330.5 255.5,330.5 256.5,330.5C 256.5,331.833 256.5,333.167 256.5,334.5C 252.167,334.5 247.833,334.5 243.5,334.5C 243.5,333.167 243.5,331.833 243.5,330.5C 244.833,330.5 246.167,330.5 247.5,330.5C 247.5,326.5 247.5,322.5 247.5,318.5C 246.167,318.5 244.833,318.5 243.5,318.5C 243.5,317.167 243.5,315.833 243.5,314.5 Z"/></g>
<g><path style="opacity:1" fill="#1c1c1c" d="M 258.5,314.5 C 264.167,314.5 269.833,314.5 275.5,314.5C 273.688,320.512 270.355,325.678 265.5,330C 268.817,330.498 272.15,330.665 275.5,330.5C 275.5,331.833 275.5,333.167 275.5,334.5C 269.833,334.5 264.167,334.5 258.5,334.5C 258.34,332.801 258.506,331.134 259,329.5C 261.833,326 264.667,322.5 267.5,319C 264.518,318.502 261.518,318.335 258.5,318.5C 258.5,317.167 258.5,315.833 258.5,314.5 Z"/></g>
</svg>
