<?xml version="1.0" encoding="UTF-8"?>
<svg viewBox="0 0 251.94656 243.92517" xmlns="http://www.w3.org/2000/svg" xmlns:xlink="http://www.w3.org/1999/xlink">
 <defs>
  <filter id="o">
   <feGaussianBlur stdDeviation="1.60406"/>
  </filter>
  <filter id="n"/>
  <linearGradient id="a">
   <stop stop-color="#fff" offset="0"/>
   <stop stop-color="#fff" stop-opacity="0" offset="1"/>
  </linearGradient>
  <linearGradient id="l" x1="327.52" x2="328.01" y1="186.46" y2="237.22" gradientUnits="userSpaceOnUse">
   <stop stop-color="#b3b3b3" offset="0"/>
   <stop stop-color="#a9a9a9" offset=".33656"/>
   <stop stop-color="#969696" offset="1"/>
  </linearGradient>
  <linearGradient id="k" x1="375.52" x2="395.54" gradientUnits="userSpaceOnUse">
   <stop stop-color="#767676" offset="0"/>
   <stop stop-color="#767676" stop-opacity="0" offset="1"/>
  </linearGradient>
  <linearGradient id="i" x1="121.84" x2="122.61" y1="201.4" y2="216.81" gradientUnits="userSpaceOnUse">
   <stop offset="0"/>
   <stop stop-opacity="0" offset="1"/>
  </linearGradient>
  <linearGradient id="b" x1="375.43" x2="401.66" y1="242.74" y2="246.19" gradientUnits="userSpaceOnUse">
   <stop stop-color="#e5e5e5" offset="0"/>
   <stop stop-color="#e5e5e5" stop-opacity=".45588" offset="1"/>
  </linearGradient>
  <linearGradient id="j" x1="123.44" x2="125.44" y1="4.9636" y2="11.752" gradientUnits="userSpaceOnUse" xlink:href="#a"/>
  <linearGradient id="h" x1="122.42" x2="124.45" y1="46.374" y2="52.835" gradientUnits="userSpaceOnUse" xlink:href="#a"/>
  <linearGradient id="g" x1="121.56" x2="125.21" y1="19.167" y2="34.649" gradientUnits="userSpaceOnUse" xlink:href="#a"/>
  <linearGradient id="f" x1="119.57" x2="126.18" gradientUnits="userSpaceOnUse" xlink:href="#a"/>
  <linearGradient id="d" x1="53.239" x2="55.497" y1="55.698" y2="64.126" gradientUnits="userSpaceOnUse" xlink:href="#a"/>
  <linearGradient id="m" x1="116.65" x2="123.94" y1="205.69" y2="213.89" gradientUnits="userSpaceOnUse" xlink:href="#a"/>
  <radialGradient id="e" cx="314.95" cy="573.63" r="75.928" gradientTransform="matrix(-.009589 1.3471 -1.662 -.030773 1271.4 172.25)" gradientUnits="userSpaceOnUse">
   <stop stop-color="#666" offset="0"/>
   <stop stop-color="#898989" offset="1"/>
  </radialGradient>
  <radialGradient id="c" cx="128.09" cy="670.47" r="137" gradientTransform="matrix(.010623 -.60984 1.4018 .024417 -740.58 716.79)" gradientUnits="userSpaceOnUse">
   <stop stop-color="#b2b2b2" offset="0"/>
   <stop stop-color="#b2b2b2" stop-opacity="0" offset="1"/>
  </radialGradient>
 </defs>
 <path d="m171.5 224.96v6.2021c0 5.3383-20.763 9.6675-46.367 9.6675s-46.366-4.3292-46.366-9.6675v-6.2021c0 5.3383 20.763 9.6681 46.366 9.6681s46.367-4.3298 46.367-9.6681z" fill="#808080"/>
 <path transform="matrix(.37239 0 0 1.4318 -4.5886 -647.27)" d="m472.48 609.67a124.25 7.4202 0 1 1 -248.49 0 124.25 7.4202 0 1 1 248.49 0z" fill="#676766" fill-rule="evenodd" opacity=".9931"/>
 <path d="m166.04 218.11v4.3631c0 3.7554-18.054 6.8014-40.319 6.8014s-40.319-3.046-40.319-6.8014v-4.3631c0 3.7554 18.055 6.8014 40.319 6.8014s40.319-3.046 40.319-6.8014z" fill="#999"/>
 <path transform="matrix(.53154 0 0 .32947 -54.186 26.717)" d="m414.15 581.19a75.928 23.469 0 1 1 -151.86 0 75.928 23.469 0 1 1 151.86 0z" fill="url(#e)" fill-rule="evenodd" opacity=".9931"/>
 <g transform="matrix(.36429 0 0 .36429 -16.537 -38.944)">
  <path d="m319.81 174.94c-9.7531 0.15622-19.424 2.585-32.594 8.5625-14.339 6.5084-25.202 12.595-36.656 17.344-13.403 5.5557-19.605 3.402-30.969-1.625-2.5599-1.1332-4.6865-2.3282-6.625-3.4688-12.277-7.2236-16.075-6.6422-23.969 1.5-1.8504-2.4562-4.3636-3.9688-7.125-3.9688-5.6909 0-10.312 6.4071-10.312 14.312s4.6216 14.312 10.312 14.312c2.3796 0 4.566-1.1182 6.3125-3 3.604-3.8889 5.3186-4.1374 8.5938-0.1875 4.3543 5.2523 5.8125 5.9788 5.8125 12.75v3.5625c0 3.5308-0.82939 5.5536-5.375 5.6562-4.154 0.09439-4.7802-4.0747-6.0625-7.0938-0.47083-1.1089-0.41634-1.3826-1.5625-1.7812-2.8397-0.99081-3.2269-0.84093-5.4688 0.9375-1.1478 0.90873-1.0284 1.0815-1.125 2.5312-0.29839 4.4584-0.59501 5.612 3.3125 9.1875 3.1704 2.8988 5.5564 4.7269 11 4.5 23.332-0.98519 10.138-22.131 10.25-33.062-0.07001-3.4544 0.22091-4.4045 0.96875-5 2.1117-1.6768 3.2406-0.60455 5.5625 0.21875 7.7331 2.745 17.102 5.317 36.031 6.875 6.9368-0.09755 13.577-1.2427 20.188-2.8438 16.897-4.0938 33.515-11.173 53.75-11.531 14.062-0.24906 29.884 2.74 48.781 12.281h32.719c18.897-9.5413 34.719-12.53 48.781-12.281 20.235 0.35786 36.824 7.4374 53.719 11.531 6.6108 1.6011 13.284 2.7462 20.219 2.8438 18.929-1.558 28.269-4.13 36-6.875 2.323-0.8233 3.4828-1.8956 5.5938-0.21875 0.7482 0.59551 1.007 1.5456 0.9375 5 0.11044 10.932-13.081 32.077 10.25 33.062 5.444 0.22691 7.8309-1.6012 11-4.5 3.9084-3.5755 3.61-4.7291 3.3125-9.1875-0.09795-1.4498 0.02222-1.6225-1.125-2.5312-2.241-1.7784-2.5979-1.9283-5.4375-0.9375-1.1472 0.39865-1.0922 0.67233-1.5625 1.7812-1.2826 3.019-1.9083 7.1881-6.0625 7.0938-4.5444-0.10264-5.375-2.1254-5.375-5.6562 1e-5 -1.1787 0-2.3854 0-3.5625 1e-5 -6.7712 1.4275-7.4977 5.7812-12.75 3.276-3.9499 4.99-3.7014 8.5938 0.1875 1.7458 1.8818 3.9343 3 6.3125 3 5.6916-1e-5 10.312-6.4073 10.312-14.312s-4.6209-14.312-10.312-14.312c-2.7612 0-5.2759 1.5126-7.125 3.9688-7.8952-8.1422-11.66-8.7236-23.938-1.5-1.9382 1.1406-4.0964 2.3356-6.6562 3.4688-11.362 5.027-17.536 7.1807-30.938 1.625-11.456-4.7488-22.318-10.835-36.656-17.344-23.413-10.627-35.791-10.085-57.188-5.4062-8.9569 1.959-17.763 4.8319-28.438 9.6562h-32.719c-10.674-4.8243-19.482-7.6973-28.438-9.6562-9.3609-2.047-17.008-3.2778-24.594-3.1562z" fill="#808080"/>
  <path d="m319.81 175.78c-9.6219 0.15412-19.143 2.5512-32.25 8.5-14.304 6.4928-25.172 12.57-36.688 17.344-6.7799 2.8103-11.849 3.7074-16.656 3.2188s-9.2758-2.3253-14.969-4.8438c-2.6025-1.1521-4.7698-2.3845-6.7188-3.5312-6.0973-3.5875-9.9698-5.1115-13.125-4.875s-5.9056 2.2203-9.8125 6.25c-0.17376 0.17573-0.41577 0.26654-0.66224 0.2485s-0.47268-0.1431-0.61901-0.34225c-1.7295-2.2957-3.9845-3.625-6.4375-3.625-2.5285 0-4.8461 1.419-6.5938 3.8438s-2.875 5.8369-2.875 9.625 1.1273 7.2002 2.875 9.625 4.0653 3.8438 6.5938 3.8438c2.115 0 4.0666-0.9723 5.6875-2.7188 1.8413-1.9868 3.2852-3.24 5-3.3125 0.8574-0.03626 1.6885 0.2697 2.4688 0.8125s1.5616 1.3251 2.4062 2.3438c2.1598 2.6052 3.6367 4.1056 4.625 5.9375s1.375 3.8976 1.375 7.3438v3.5625c0 1.8316-0.17674 3.4439-1.1562 4.6562s-2.6344 1.7896-5.0312 1.8438c-2.3603 0.05363-3.9498-1.2234-4.875-2.7812s-1.3942-3.3862-2-4.8125c-0.24976-0.58825-0.37507-0.91493-0.4375-1s-0.11248-0.13424-0.625-0.3125c-1.3961-0.48711-2.0625-0.64955-2.5312-0.5625s-1.0136 0.46207-2.125 1.3438c-0.54229 0.42936-0.64165 0.56422-0.6875 0.6875s-0.07504 0.49989-0.125 1.25c-0.15012 2.243-0.28303 3.5474 0.03125 4.625s1.0875 2.125 3 3.875c3.1451 2.8757 5.1615 4.4999 10.406 4.2812 5.7024-0.24078 8.9987-1.6832 10.844-3.75s2.3651-4.8855 2.1875-8.1562c-0.35526-6.5415-3.6533-14.501-3.5938-20.312-0.03552-1.7525 0.00335-2.8802 0.1875-3.75s0.59036-1.5054 1.0938-1.9062c1.1819-0.93852 2.3739-1.1992 3.4062-1s1.876 0.70629 2.9688 1.0938c7.6776 2.7253 16.921 5.2583 35.75 6.8125h0.0625c6.8287-0.10239 13.383-1.2251 19.938-2.8125 16.803-4.0712 33.514-11.201 53.938-11.562 14.145-0.25052 30.051 2.7634 48.969 12.281h32.344c18.918-9.5178 34.824-12.532 48.969-12.281 20.424 0.3612 37.105 7.4913 53.906 11.562 6.5537 1.5873 13.142 2.7101 19.969 2.8125h0.0625c18.829-1.5542 28.042-4.087 35.719-6.8125 1.0944-0.38787 1.9615-0.89523 3-1.0938s2.2231 0.06019 3.4062 1c0.50821 0.4045 0.888 1.0383 1.0625 1.9062s0.2227 2.0314 0.1875 3.7812c0.05871 5.8111-3.2388 13.74-3.5938 20.281-0.17748 3.2707 0.34235 6.0894 2.1875 8.1562s5.1416 3.5092 10.844 3.75c5.2452 0.21862 7.2625-1.4057 10.406-4.2812 1.9129-1.75 2.6859-2.7974 3-3.875s0.18093-2.3819 0.03125-4.625c-0.05069-0.7503-0.07908-1.1264-0.125-1.25s-0.14556-0.25822-0.6875-0.6875c-1.1125-0.88283-1.6665-1.2577-2.125-1.3438s-1.1031 0.07509-2.5 0.5625c-0.51306 0.17828-0.56279 0.2277-0.625 0.3125s-0.18798 0.41165-0.4375 1c-0.60591 1.4262-1.0749 3.2546-2 4.8125s-2.5146 2.8349-4.875 2.7812c-2.3962-0.05412-4.0516-0.63153-5.0312-1.8438s-1.1562-2.8246-1.1562-4.6562c1e-5 -1.1787 0-2.3854 0-3.5625 1e-5 -3.4449 0.3635-5.5112 1.3438-7.3438s2.4649-3.3315 4.625-5.9375c0.84487-1.0187 1.6259-1.801 2.4062-2.3438s1.6114-0.84876 2.4688-0.8125c1.7147 0.07253 3.1588 1.3257 5 3.3125 1.6199 1.7461 3.5741 2.7188 5.6875 2.7188 2.5289 0 4.8462-1.419 6.5938-3.8438s2.875-5.837 2.875-9.625-1.1274-7.2003-2.875-9.625-4.0649-3.8438-6.5938-3.8438c-2.4528 0-4.7095 1.3296-6.4375 3.625-0.14633 0.19915-0.37254 0.32422-0.61901 0.34225s-0.48848-0.07277-0.66224-0.2485c-3.9079-4.0301-6.6348-6.0136-9.7812-6.25s-7.0273 1.2874-13.125 4.875c-1.9521 1.1488-4.1498 2.3802-6.75 3.5312-5.6918 2.5184-10.169 4.355-14.969 4.8438s-9.8462-0.40854-16.625-3.2188c-11.518-4.7742-22.383-10.851-36.688-17.344-23.301-10.576-35.313-10.042-56.656-5.375-8.9014 1.9468-17.651 4.8206-28.281 9.625-0.10898 0.04456-0.22606 0.06585-0.34375 0.0625h-32.719c-0.11769 0.00335-0.23477-0.01794-0.34375-0.0625-10.63-4.8044-19.382-7.6782-28.281-9.625-9.3362-2.0416-16.921-3.2449-24.406-3.125z" fill="url(#l)"/>
 </g>
 <path transform="matrix(.36429 0 0 .36429 -16.537 -38.944)" d="m389.1875,115.40625c-9.65727,0-17.34374,8.97512-17.34375,19.84375 0,7.25011 3.43888,13.55959 8.59375,17.03125v9.78125c-1.17081,1.3716-2.35247,2.74216-3.53125,4.125-2.69206,3.16139-4.03592,5.27572-4.625,7.6875s-.43749,4.89945-.4375,9c0,15.71347 1e-005,31.4435 0,47.15625 .00066.67282.54593,1.21809 1.21875,1.21875h6.09375c-1.06175,1.27632-1.83071,2.69728-2.15625,4.28125-.49308,2.3992-.4375,5.03058-.4375,7.75 0,2.70621-.10276,5.26315.34375,7.625 .29498,1.56029 1.03876,2.98108 2.0625,4.25h-5.90625c-.67282.00066-1.21809.54593-1.21875,1.21875v414.0625c-.00032.56522.38764,1.05664.9375,1.1875 .70342.16425 1.42286.29251 2.125.4375l-14.25,15.6875c-.41325.46285-.41325,1.16215 0,1.625l16.125,18.5c.14377.15931.32702.27789.53125.34375 4.43113,1.40642 7.4563,1.96875 11.9375,1.96875 3.36738-2e-005 8.15152-.78775 11.53125-1.96875 .20775-.07463.39136-.20424.53125-.375l15.84375-18.5c.38609-.46555.37279-1.1437-.03125-1.59375l-14-15.71875c.80955-.13163 1.62816-.26092 2.4375-.40625 .57468-.10531.99403-.60328 1-1.1875v-414.0625c-.00066-.67282-.54593-1.21809-1.21875-1.21875h-5.65625c.97784-1.28734 1.65939-2.71744 1.84375-4.28125 .27851-2.36247 0-4.92593 0-7.59375 0-2.68087.23225-5.28707-.09375-7.6875-.2117-1.55879-.77077-3.0652-1.75-4.34375h5.65625c.67282-.00066 1.21809-.54593 1.21875-1.21875v-47.15625c0-4.13192.13296-6.6324-.46875-9.03125-.60029-2.3932-1.9186-4.52302-4.65625-7.6875-1.20764-1.39494-2.42429-2.77273-3.625-4.15625v-9.625c5.22968-3.45124 8.75-9.81166 8.75-17.125 0-10.87079-7.71934-19.84375-17.375-19.84375zm-8.46875,37.125c.02469.01585.03773.04679.0625.0625-.01801-.01632-.04575-.01366-.0625-.03125-.00013-.01042-.00013-.02083 0-.03125zm16.75.125c-.02876.02597-.03058.07114-.0625.09375l-.03125-.03125 .09375-.0625zm-16.65625,76.875c.01117-.01173.05077.01117.0625,0-.02655.01762-.03626.04469-.0625.0625 .01059-.01228-.01117-.05077 0-.0625zm17.375,27.28125-.03125.0625c-.01675.01759-.04449.01493-.0625.03125 .04015-.02761.05444-.06569.09375-.09375z" fill="#808080"/>
 <path d="m125.24 3.4624c-3.2921 0-5.9539 3.0746-5.9539 6.8646 0 2.6116 1.2649 4.8853 3.1306 6.045v3.8478c-0.45686 0.53671-0.91997 1.0684-1.3775 1.6052-1.9365 2.2741-1.7532 2.8498-1.7532 5.8514v17.258h3.1648c-1.551 0.98308-1.4458 2.7588-1.4458 4.7472s-0.14501 3.6968 1.3547 4.6903h-3.0737v150.99c0.48506 0.11416 0.96073 0.21498 1.4458 0.29599l-5.6579 6.2385 5.9311 6.8077c1.6114 0.51289 2.645 0.70582 4.2577 0.70582 1.1766-1e-5 2.9338-0.28898 4.1097-0.70582l5.8287-6.8077-5.5896-6.2727c0.53088-0.0765 1.0629-0.16592 1.5938-0.26184v-150.99h-2.9599c1.4997-0.99345 1.127-2.7019 1.127-4.6903s0.33225-3.7641-1.2181-4.7472h3.051v-17.258c0-3.0218 0.18031-3.577-1.7873-5.8514-0.46465-0.53671-0.9356-1.0685-1.4002-1.6052v-3.8137c1.8943-1.1496 3.1876-3.4432 3.1876-6.0791 0-3.79-2.6738-6.8646-5.9653-6.8646z" fill="#b2b2b2"/>
 <path transform="matrix(.36429 0 0 .36429 -16.537 -38.944)" d="m389.19 117.78c-8.1829 0-14.969 7.7072-14.969 17.469 0 6.726 3.2627 12.532 7.9375 15.438 0.40336 0.2466 0.65133 0.68351 0.65625 1.1562v10.562c-0.00796 0.32305-0.12969 0.63292-0.34375 0.875-1.2608 1.4812-2.5317 2.9403-3.7812 4.4062-2.607 3.0614-3.6224 4.7892-4.0938 6.7188s-0.37499 4.321-0.375 8.4688c0 15.328 1e-5 30.672 0 46h7.3125c0.61365-0.00737 1.1576 0.39369 1.3319 0.9821s-0.06329 1.221-0.5819 1.5492c-1.8015 1.1418-2.5876 2.5871-3 4.5938s-0.34375 4.528-0.34375 7.2812c0 2.7624-0.09057 5.252 0.28125 7.2188s1.0729 3.3476 2.8125 4.5c0.51861 0.32812 0.75624 0.96074 0.5819 1.5492s-0.71825 0.98947-1.3319 0.9821h-7.0625v411.97c0.941 0.20794 1.8739 0.437 2.8125 0.59375 0.48914 0.08162 0.89616 0.42085 1.0646 0.88727s0.07205 0.98743-0.25209 1.3627l-14.719 16.25 15.188 17.438c4.1228 1.2915 6.7517 1.7812 10.938 1.7812 2.9191-2e-5 7.4787-0.76036 10.5-1.7812l14.969-17.438-14.562-16.344c-0.32516-0.37966-0.4181-0.90613-0.24259-1.3742s0.59171-0.80359 1.0863-0.87583c1.0614-0.15293 2.1195-0.34615 3.1875-0.53125v-411.94h-6.75c-0.61365 0.00737-1.1576-0.39369-1.3319-0.9821s0.06329-1.221 0.5819-1.5492c1.713-1.1347 2.2366-2.437 2.4688-4.4062s0-4.4977 0-7.3125 0.21021-5.3669-0.0625-7.375-0.88126-3.3745-2.6562-4.5c-0.51861-0.32812-0.75624-0.96074-0.5819-1.5492s0.71825-0.98947 1.3319-0.9821h7v-46c0-4.1747 0.106-6.5511-0.375-8.4688s-1.5366-3.6233-4.1875-6.6875c-1.2687-1.4655-2.5615-2.9252-3.8438-4.4062-0.22103-0.2502-0.34324-0.5724-0.34375-0.90625v-10.469c-0.00598-0.48387 0.24339-0.9351 0.65625-1.1875 4.7448-2.8796 8.0938-8.713 8.0938-15.5 0-9.7586-6.819-17.469-15-17.469z" fill="url(#k)" filter="url(#o)"/>
 <path d="m128.83 218.31 5.0838-5.9354c-6.754 1.0763-10.805 1.0763-17.559 0l5.175 5.9354c1.4063 0.44763 2.3102 0.61584 3.7177 0.61584 1.0268 0 2.5561-0.25203 3.5823-0.61584z" fill="url(#i)" filter="url(#n)" opacity=".80345"/>
 <g transform="matrix(1.1328 0 0 1.1328 -16.628 -12.742)">
  <path d="m120.02233,48.31604c3.37734.52064 6.84804.48497 10.39232,0 .73812-.101.78653-.1538.78653.59159v1.77552c0,.69647.09206.57662-.61196.66298-3.52186.43203-7.04438.40603-10.56689,0-.83035-.09571-.74499.0664-.74499-.75749v-1.70445c0-.71158.03374-.56815.74499-.56815z"/>
  <path transform="matrix(.36429 0 0 .36429 -16.537 -38.944)" d="m404.59375,239.875c-.26113.01873-.64425.08619-1.15625.15625-9.74758,1.33379-19.25715,1.4276-28.5625,0h-.0625c-.4653-.00243-.84231-.02585-1.09375-.03125-.2658-.00571-.3955.04231-.375.03125s.029-.07534 0,.09375-.03125.48509-.03125.96875c0,1.5596-1e-005,3.1279 0,4.6875 0,.57335-.013.98156 0,1.21875s.0385.22089 0,.1875 .03358.00432.3125.03125 .7271.05752 1.3125.125c9.63443,1.11054 19.24943,1.18077 28.875,0 .49598-.06084.87194-.06551 1.09375-.09375s.24055-.08554.1875-.03125-.03742.04986-.03125-.15625 0-.54267 0-1.03125c0-1.62375 1e-005-3.24949 0-4.875 0-.50226-.02425-.8558-.0625-1.0625s-.07108-.22429-.0625-.21875-.08262-.01873-.34375,0z" fill="url(#b)"/>
 </g>
 <path d="m120.02233,16.63114c3.37734.52064 6.84804.48498 10.39232,0 .73812-.101.78653-.1538.78653.59159v1.77553c0,.69647.09206.57662-.61196.66298-3.52186.43203-7.04438.40603-10.56689,0-.83035-.09571-.74499.0664-.74499-.75749v-1.70445c0-.71158.03374-.56815.74499-.56815z"/>
 <path transform="matrix(.36429 0 0 .36429 -16.537 -70.628)" d="m404.59375,239.875c-.26113.01873-.64425.08619-1.15625.15625-9.74758,1.33379-19.25715,1.4276-28.5625,0h-.0625c-.4653-.00243-.84231-.02585-1.09375-.03125-.2658-.00571-.3955.04231-.375.03125s.029-.07534 0,.09375-.03125.48509-.03125.96875c0,1.5596-1e-005,3.1279 0,4.6875 0,.57335-.013.98156 0,1.21875s.0385.22089 0,.1875 .03358.00432.3125.03125 .7271.05752 1.3125.125c9.63443,1.11054 19.24943,1.18077 28.875,0 .49598-.06084.87194-.06551 1.09375-.09375s.24055-.08554.1875-.03125-.03742.04986-.03125-.15625 0-.54267 0-1.03125c0-1.62375 1e-005-3.24949 0-4.875 0-.50226-.02425-.8558-.0625-1.0625s-.07108-.22429-.0625-.21875-.08262-.01873-.34375,0z" fill="url(#b)"/>
 <path d="m124.72 4.1875c-2.7878 0-4.3114 2.4188-4.4062 5.125-0.03663 0.80233 0.34209 1.5671 1.0024 2.0242s1.5095 0.54246 2.2476 0.22576c1.2228-0.5165 2.4897-1.1132 3.7812-1.8438 0.5552-0.31615 0.95643-0.84619 1.11-1.4664s0.04603-1.2762-0.2975-1.8149c-0.60426-0.96777-1.5061-2.25-3.4375-2.25z" fill="url(#j)" fill-rule="evenodd"/>
 <path d="m119.62 56.562v148.97h7.625v-148.97h-7.625z" fill="url(#f)" fill-rule="evenodd"/>
 <g transform="matrix(1.1328 0 0 1.1328 -16.628 -.976)">
  <path d="m120.02233,48.31604c3.37734.52064 6.84804.48497 10.39232,0 .73812-.101.78653-.1538.78653.59159v1.77552c0,.69647.09206.57662-.61196.66298-3.52186.43203-7.04438.40603-10.56689,0-.83035-.09571-.74499.0664-.74499-.75749v-1.70445c0-.71158.03374-.56815.74499-.56815z"/>
  <path transform="matrix(.36429 0 0 .36429 -16.537 -38.944)" d="m404.59375,239.875c-.26113.01873-.64425.08619-1.15625.15625-9.74758,1.33379-19.25715,1.4276-28.5625,0h-.0625c-.4653-.00243-.84231-.02585-1.09375-.03125-.2658-.00571-.3955.04231-.375.03125s.029-.07534 0,.09375-.03125.48509-.03125.96875c0,1.5596-1e-005,3.1279 0,4.6875 0,.57335-.013.98156 0,1.21875s.0385.22089 0,.1875 .03358.00432.3125.03125 .7271.05752 1.3125.125c9.63443,1.11054 19.24943,1.18077 28.875,0 .49598-.06084.87194-.06551 1.09375-.09375s.24055-.08554.1875-.03125-.03742.04986-.03125-.15625 0-.54267 0-1.03125c0-1.62375 1e-005-3.24949 0-4.875 0-.50226-.02425-.8558-.0625-1.0625s-.07108-.22429-.0625-.21875-.08262-.01873-.34375,0z" fill="url(#b)"/>
 </g>
 <path d="m122.53125,46.375c-.72898.06183-1.28736.67467-1.28125,1.40625v2.90625c.00366.52376.29946,1.00164.76661,1.23851s1.02747.19307 1.45214-.11351c.64699-.46704 1.35238-.93725 2.09375-1.5625 .31437-.26374.49715-.65216.5-1.0625v-1.40625c.00178-.37351-.1458-.73223-.40991-.99634s-.62283-.4117-.99634-.40991h-2-.125z" fill="url(#h)" fill-rule="evenodd"/>
 <path transform="matrix(1.1362 0 0 1 -16.353 -.80001)" d="m123.875,21.59375c-.58689.01664-1.22678.45033-1.34375.5625-.55448.53688-1.27949,1.1545-2,2.03125-.02493.02994-.46317.46807-.46875,1.28125v13.625c-.00155.45906-.15367.72147.59375,1.46875s1.0095.59539 1.46875.59375h1.8125c.4593.00164.72219.15284 1.46875-.59375s.5953-1.00969.59375-1.46875v-15.4375l-.0625-.5c-7e-005-.00028-.04699-.14541-.0625-.1875l-.0625-.15625c-.03069-.06542-.04736-.06629-.0625-.09375-.03028-.05493-.0365-.11536-.0625-.15625-.05201-.08178-.0562-.12725-.34375-.40625 .17521.16996.34574.25468-.1875-.15625s-1.13254-.41137-1.28125-.40625z" fill="url(#g)" fill-rule="evenodd"/>
 <path d="m44.398 77.275c2.6721 0 3.5263 0 5.8446-2.5036 1.1862-3.2739 2.7586-3.2739 5.055-3.2739s3.8688 0 5.055 3.2739c2.3181 2.5036 3.1728 2.5036 5.8445 2.5036 2.0053-2.3045 2.0468-3.2086-0.25958-4.6224-1.2992 0-1.2992 0-1.2992 1.0917-2.7224 0.04546-2.7425 0.0429-3.052-0.7703l-2.8326-17.874c-0.06457-0.61406-0.27451-0.61406-0.77433-0.6277l-0.54908 0.01364-0.54097-5.2968c-0.10844-1.0587-0.10844-1.0587-0.85305-1.0587h-1.4772c-0.74467 0-0.74467 0-0.85311 1.0587l-0.54097 5.2968-0.54901-0.01364c-0.49982 0.01364-0.70983 0.01364-0.77439 0.6277l-2.8328 17.874c-0.30968 0.8132-0.32947 0.81576-3.052 0.7703 0-1.0917 0-1.0917-1.2988-1.0917-2.3068 1.4138-2.2648 2.3179-0.25984 4.6224z" fill="#c5b37b"/>
 <path d="m54.15625,48.4375c.00481-.00615-.07068.25096-.125.78125l-.5625,5.3125c-.00612.05683-.02774.11088-.0625.15625-.03303.04135-.07605.07362-.125.09375s-.10234.03454-.15625.03125l-.5-.03125h-.03125c-.21269.0088-.33105.02334-.34375.03125s-.06527.04161-.09375.3125c.00052.01041.00052.02084 0,.03125l-2.84375,17.875-.03125.0625c-.0773.20298-.12459.36368-.25.53125s-.32682.28194-.5625.34375c-.47136.12363-1.13821.11649-2.5.09375-.08294.00019-.16254-.03267-.22118-.09132s-.09151-.13824-.09132-.22118c0-.27228-.01481-.47666-.03125-.59375s-.02608-.12073-.03125-.125-.06024-.04764-.21875-.0625c-.13095-.01228-.34964.00064-.59375,0-.53888.33361-.94001.6316-1.1875.90625-.25476.28271-.36554.51696-.375.78125-.01834.51213.4486,1.23237 1.375,2.3125 1.21115-.00129 2.0229-.01022 2.75-.28125 .76158-.28388 1.53074-.88313 2.65625-2.09375 .00514-.01381.02609-.01755.03125-.03125 .59843-1.58807 1.2973-2.49677 2.1875-2.9375 .91641-.4537 1.94526-.4375 3.09375-.4375s2.15344-.01683 3.0625.4375c.88306.44134 1.58987,1.3502 2.1875,2.9375l.03125.03125c1.12544,1.21061 1.8946,1.80986 2.65625,2.09375 .72716.27103 1.53901.27996 2.75.28125 .92652-1.08012 1.39341-1.80037 1.375-2.3125-.0095-.26429-.12023-.49853-.375-.78125-.24751-.27466-.64872-.57264-1.1875-.90625-.24418.00064-.46279-.01228-.59375,0-.15853.01486-.21362.05826-.21875.0625s-.01484.0079-.03125.125-.03125.32145-.03125.59375c5e-005,.06762-.02188.13343-.0625.1875-.05894.07878-.15161.12511-.25.125-1.36169.02274-2.02861.02987-2.5-.09375-.23569-.06181-.43707-.17617-.5625-.34375s-.17273-.32825-.25-.53125c-.01273-.0196-.02321-.04056-.03125-.0625l-2.84375-17.875c-.00052-.01041-.00052-.02084 0-.03125-.02848-.27088-.07991-.30387-.09375-.3125s-.13106-.02245-.34375-.03125h-.03125l-.5.03125c-.09318.00782-.18494-.02659-.25-.09375-.05195-.04981-.08508-.11605-.09375-.1875l-.5625-5.3125c-.05432-.53028-.1298-.78739-.125-.78125 .0024.00307.03252.01021-.03125,0s-.18911,0-.375,0h-.71875-.75c-.1859,0-.31122-.01021-.375,0s-.03366.00308-.03125,0z" fill="#a0a0a0" fill-opacity=".23228"/>
 <path transform="matrix(.36429 0 0 .36429 -16.537 -38.944)" d="m196.875,257.375c-.709.10143-1.32533.55232-1.65625,1.1875-.50139.94567-1.31309,1.68124-2.3125,2.0625-.75985.26925-1.30346.92381-1.4375,1.71875l-5.5,34.875c-.00013.01042-.00013.02083 0,.03125-.10232.73819.18857,1.5061.78125,2s1.37963.65248 2.125.40625h.03125c2.88617-.97779 5.60304-.90625 8.28125-.90625s5.39505-.07153 8.28125.90625h.03125c.74537.24623 1.53233.08764 2.125-.40625s.88357-1.26181.78125-2c.00013-.01042.00013-.02083 0-.03125l-5.5-34.90625c-.13404-.79494-.7089-1.48075-1.46875-1.75-.99843-.37703-1.80782-1.09459-2.3125-2.03125-.42448-.80561-1.28235-1.25547-2.1875-1.15625h-.0625z" fill="#bc955d"/>
 <path d="m55.21875,55.75c-.23517.01639-.45677.11611-.625.28125-.22479.21128-.30032.29353-.28125.28125-.23772.15578-.39706.40618-.4375.6875l-.96875,6c-.05434.39313.13123.78074.47154.98493s.76965.18552 1.09096-.04743c.81435-.63488 1.66242-1.17009 2.59375-2 .25315-.2282.37119-.57052.3125-.90625l-.65625-4.03125c-.04044-.28132-.19978-.53172-.4375-.6875-.00596-.00366-.12874-.11826-.34375-.3125-.19673-.17572-.45544-.2657-.71875-.25z" fill="url(#d)"/>
 <path d="m62.8125,73.0625c-.2909.0171-.55323.22899-.5.59375l45.09375,111.78125c-5.55251-1.5317-26.3504-6.03125-51.3125-6.03125-25.29514,0-46.4186,3.28965-51.625,5.5625l43.625-111.28125c-.05828-.51135-1.14425-.41811-1.28125.09375l-43.625,112.0625c.00134.03701.02595.05937.03125.09375 .01708.11086.0701.1956.125.28125 .06165.09617.11612.18114.21875.25 .02832.019.06266.04535.09375.0625 .00365.00283-.0037.02839 0,.03125 9.40888,12.55028 25.4448,24.875 52.5,24.875 21.66421,1e-005 44.31198-8.79484 52.84375-25.5h-.03125l-45.375-112.28125c-.14784-.44657-.49035-.61085-.78125-.59375z" fill="#181818"/>
 <path transform="matrix(.36429 0 0 .36429 -16.537 -38.944)" d="m199.38 602.81c-39.91 0-76.069 3.0039-102.16 6.7188-13.044 1.8574-23.589 3.9155-30.719 5.8125-3.0022 0.79886-5.0069 1.5461-6.6562 2.2188 1.6726 0.87167 3.8248 1.8451 6.9375 2.9688 7.1258 2.5724 17.638 5.5372 30.656 8.3125 26.036 5.5507 62.133 10.406 101.94 10.406 39.734 0 75.797-6.0525 101.88-12.219 13.039-3.0831 23.592-6.2039 30.844-8.5938 0.76676-0.2527 1.0578-0.38931 1.75-0.625-0.59232-0.1433-0.82399-0.22367-1.4688-0.375-7.2664-1.7054-17.842-3.8979-30.906-6.0625-26.128-4.3292-62.254-8.5625-102.09-8.5625z" fill="url(#c)"/>
 <g transform="translate(139.84)">
  <path d="m44.398 77.275c2.6721 0 3.5263 0 5.8446-2.5036 1.1862-3.2739 2.7586-3.2739 5.055-3.2739s3.8688 0 5.055 3.2739c2.3181 2.5036 3.1728 2.5036 5.8445 2.5036 2.0053-2.3045 2.0468-3.2086-0.25958-4.6224-1.2992 0-1.2992 0-1.2992 1.0917-2.7224 0.04546-2.7425 0.0429-3.052-0.7703l-2.8326-17.874c-0.06457-0.61406-0.27451-0.61406-0.77433-0.6277l-0.54908 0.01364-0.54097-5.2968c-0.10844-1.0587-0.10844-1.0587-0.85305-1.0587h-1.4772c-0.74467 0-0.74467 0-0.85311 1.0587l-0.54097 5.2968-0.54901-0.01364c-0.49982 0.01364-0.70983 0.01364-0.77439 0.6277l-2.8328 17.874c-0.30968 0.8132-0.32947 0.81576-3.052 0.7703 0-1.0917 0-1.0917-1.2988-1.0917-2.3068 1.4138-2.2648 2.3179-0.25984 4.6224z" fill="#c5b37b"/>
  <path d="m54.15625,48.4375c.00481-.00615-.07068.25096-.125.78125l-.5625,5.3125c-.00612.05683-.02774.11088-.0625.15625-.03303.04135-.07605.07362-.125.09375s-.10234.03454-.15625.03125l-.5-.03125h-.03125c-.21269.0088-.33105.02334-.34375.03125s-.06527.04161-.09375.3125c.00052.01041.00052.02084 0,.03125l-2.84375,17.875-.03125.0625c-.0773.20298-.12459.36368-.25.53125s-.32682.28194-.5625.34375c-.47136.12363-1.13821.11649-2.5.09375-.08294.00019-.16254-.03267-.22118-.09132s-.09151-.13824-.09132-.22118c0-.27228-.01481-.47666-.03125-.59375s-.02608-.12073-.03125-.125-.06024-.04764-.21875-.0625c-.13095-.01228-.34964.00064-.59375,0-.53888.33361-.94001.6316-1.1875.90625-.25476.28271-.36554.51696-.375.78125-.01834.51213.4486,1.23237 1.375,2.3125 1.21115-.00129 2.0229-.01022 2.75-.28125 .76158-.28388 1.53074-.88313 2.65625-2.09375 .00514-.01381.02609-.01755.03125-.03125 .59843-1.58807 1.2973-2.49677 2.1875-2.9375 .91641-.4537 1.94526-.4375 3.09375-.4375s2.15344-.01683 3.0625.4375c.88306.44134 1.58987,1.3502 2.1875,2.9375l.03125.03125c1.12544,1.21061 1.8946,1.80986 2.65625,2.09375 .72716.27103 1.53901.27996 2.75.28125 .92652-1.08012 1.39341-1.80037 1.375-2.3125-.0095-.26429-.12023-.49853-.375-.78125-.24751-.27466-.64872-.57264-1.1875-.90625-.24418.00064-.46279-.01228-.59375,0-.15853.01486-.21362.05826-.21875.0625s-.01484.0079-.03125.125-.03125.32145-.03125.59375c5e-005,.06762-.02188.13343-.0625.1875-.05894.07878-.15161.12511-.25.125-1.36169.02274-2.02861.02987-2.5-.09375-.23569-.06181-.43707-.17617-.5625-.34375s-.17273-.32825-.25-.53125c-.01273-.0196-.02321-.04056-.03125-.0625l-2.84375-17.875c-.00052-.01041-.00052-.02084 0-.03125-.02848-.27088-.07991-.30387-.09375-.3125s-.13106-.02245-.34375-.03125h-.03125l-.5.03125c-.09318.00782-.18494-.02659-.25-.09375-.05195-.04981-.08508-.11605-.09375-.1875l-.5625-5.3125c-.05432-.53028-.1298-.78739-.125-.78125 .0024.00307.03252.01021-.03125,0s-.18911,0-.375,0h-.71875-.75c-.1859,0-.31122-.01021-.375,0s-.03366.00308-.03125,0z" fill="#a0a0a0" fill-opacity=".23228"/>
  <path transform="matrix(.36429 0 0 .36429 -16.537 -38.944)" d="m196.875,257.375c-.709.10143-1.32533.55232-1.65625,1.1875-.50139.94567-1.31309,1.68124-2.3125,2.0625-.75985.26925-1.30346.92381-1.4375,1.71875l-5.5,34.875c-.00013.01042-.00013.02083 0,.03125-.10232.73819.18857,1.5061.78125,2s1.37963.65248 2.125.40625h.03125c2.88617-.97779 5.60304-.90625 8.28125-.90625s5.39505-.07153 8.28125.90625h.03125c.74537.24623 1.53233.08764 2.125-.40625s.88357-1.26181.78125-2c.00013-.01042.00013-.02083 0-.03125l-5.5-34.90625c-.13404-.79494-.7089-1.48075-1.46875-1.75-.99843-.37703-1.80782-1.09459-2.3125-2.03125-.42448-.80561-1.28235-1.25547-2.1875-1.15625h-.0625z" fill="#bc955d"/>
  <path d="m55.21875,55.75c-.23517.01639-.45677.11611-.625.28125-.22479.21128-.30032.29353-.28125.28125-.23772.15578-.39706.40618-.4375.6875l-.96875,6c-.05434.39313.13123.78074.47154.98493s.76965.18552 1.09096-.04743c.81435-.63488 1.66242-1.17009 2.59375-2 .25315-.2282.37119-.57052.3125-.90625l-.65625-4.03125c-.04044-.28132-.19978-.53172-.4375-.6875-.00596-.00366-.12874-.11826-.34375-.3125-.19673-.17572-.45544-.2657-.71875-.25z" fill="url(#d)"/>
  <path d="m62.8125,73.0625c-.2909.0171-.55323.22899-.5.59375l45.09375,111.78125c-5.55251-1.5317-26.3504-6.03125-51.3125-6.03125-25.29514,0-46.4186,3.28965-51.625,5.5625l43.625-111.28125c-.05828-.51135-1.14425-.41811-1.28125.09375l-43.625,112.0625c.00134.03701.02595.05937.03125.09375 .01708.11086.0701.1956.125.28125 .06165.09617.11612.18114.21875.25 .02832.019.06266.04535.09375.0625 .00365.00283-.0037.02839 0,.03125 9.40888,12.55028 25.4448,24.875 52.5,24.875 21.66421,1e-005 44.31198-8.79484 52.84375-25.5h-.03125l-45.375-112.28125c-.14784-.44657-.49035-.61085-.78125-.59375z" fill="#181818"/>
  <path transform="matrix(.36429 0 0 .36429 -16.537 -38.944)" d="m199.38 602.81c-39.91 0-76.069 3.0039-102.16 6.7188-13.044 1.8574-23.589 3.9155-30.719 5.8125-3.0022 0.79886-5.0069 1.5461-6.6562 2.2188 1.6726 0.87167 3.8248 1.8451 6.9375 2.9688 7.1258 2.5724 17.638 5.5372 30.656 8.3125 26.036 5.5507 62.133 10.406 101.94 10.406 39.734 0 75.797-6.0525 101.88-12.219 13.039-3.0831 23.592-6.2039 30.844-8.5938 0.76676-0.2527 1.0578-0.38931 1.75-0.625-0.59232-0.1433-0.82399-0.22367-1.4688-0.375-7.2664-1.7054-17.842-3.8979-30.906-6.0625-26.128-4.3292-62.254-8.5625-102.09-8.5625z" fill="url(#c)"/>
 </g>
 <path d="m121.5 206.03c-0.47037 0.04773-0.9055 0.27088-1.2188 0.625l-3.6562 4.0312c-0.63406 0.71272-0.63406 1.7873 0 2.5l2.9688 3.375c0.40191 0.44996 0.9953 0.67977 1.5954 0.6179s1.1342-0.40791 1.4358-0.9304c1.4383-2.5206 2.0529-5.628 1.9688-8.4062-0.0366-1.0098-0.86457-1.8101-1.875-1.8125h-1.2188z" fill="url(#m)"/>
 <g transform="matrix(1.1328 0 0 1.1328 -16.628 148.14)">
  <path d="m120.02233,48.31604c3.37734.52064 6.84804.48497 10.39232,0 .73812-.101.78653-.1538.78653.59159v1.77552c0,.69647.09206.57662-.61196.66298-3.52186.43203-7.04438.40603-10.56689,0-.83035-.09571-.74499.0664-.74499-.75749v-1.70445c0-.71158.03374-.56815.74499-.56815z"/>
  <path transform="matrix(.36429 0 0 .36429 -16.537 -38.944)" d="m404.59375,239.875c-.26113.01873-.64425.08619-1.15625.15625-9.74758,1.33379-19.25715,1.4276-28.5625,0h-.0625c-.4653-.00243-.84231-.02585-1.09375-.03125-.2658-.00571-.3955.04231-.375.03125s.029-.07534 0,.09375-.03125.48509-.03125.96875c0,1.5596-1e-005,3.1279 0,4.6875 0,.57335-.013.98156 0,1.21875s.0385.22089 0,.1875 .03358.00432.3125.03125 .7271.05752 1.3125.125c9.63443,1.11054 19.24943,1.18077 28.875,0 .49598-.06084.87194-.06551 1.09375-.09375s.24055-.08554.1875-.03125-.03742.04986-.03125-.15625 0-.54267 0-1.03125c0-1.62375 1e-005-3.24949 0-4.875 0-.50226-.02425-.8558-.0625-1.0625s-.07108-.22429-.0625-.21875-.08262-.01873-.34375,0z" fill="url(#b)"/>
 </g>
</svg>
